Music_BoosterPack_Ch1:
	stereo_panning 1, 1
	vibrato_type 1
	vibrato_delay 20
	cutoff 8
	octave 4
	duty 1
	speed 1
	volume_envelope 10, 0
	D# 5
	volume_envelope 3, 7
	D# 1
	volume_envelope 10, 0
	G_ 5
	volume_envelope 3, 7
	G_ 1
	volume_envelope 10, 0
	A# 5
	volume_envelope 3, 7
	A# 2
	volume_envelope 10, 0
	F_ 5
	volume_envelope 3, 7
	F_ 1
	volume_envelope 10, 0
	A_ 5
	volume_envelope 3, 7
	A_ 1
	inc_octave
	volume_envelope 10, 0
	C_ 5
	volume_envelope 3, 7
	C_ 2
	dec_octave
	volume_envelope 10, 0
	B_ 16
	tie
	B_ 16
	tie
	B_ 6
	volume_envelope 3, 7
	B_ 9
	music_end


Music_BoosterPack_Ch2:
	stereo_panning 1, 1
	vibrato_type 1
	vibrato_delay 20
	cutoff 8
	octave 3
	duty 1
	speed 1
	volume_envelope 9, 0
	A# 5
	volume_envelope 2, 7
	A# 1
	inc_octave
	volume_envelope 9, 0
	D# 5
	volume_envelope 2, 7
	D# 1
	volume_envelope 9, 0
	G_ 5
	volume_envelope 2, 7
	G_ 2
	volume_envelope 9, 0
	C_ 5
	volume_envelope 2, 7
	C_ 1
	volume_envelope 9, 0
	F_ 5
	volume_envelope 2, 7
	F_ 1
	volume_envelope 9, 0
	A_ 5
	volume_envelope 2, 7
	A_ 2
	volume_envelope 9, 0
	G_ 16
	tie
	G_ 16
	tie
	G_ 6
	volume_envelope 2, 7
	G_ 9
	music_end


Music_BoosterPack_Ch3:
	stereo_panning 1, 1
	wave 1
	volume_envelope 2, 0
	cutoff 8
	echo 0
	octave 1
	speed 1
	D# 6
	A# 6
	inc_octave
	D# 7
	dec_octave
	F_ 6
	inc_octave
	C_ 6
	F_ 7
	dec_octave
	G_ 16
	tie
	G_ 16
	tie
	G_ 6
	music_end
