Music_ChallengeHall_Ch1:
	stereo_panning TRUE, TRUE
	vibrato_type 8
	vibrato_delay 15
	cutoff 7
	octave 3
	duty 2
	volume_envelope 8, 0
	cutoff 8
	speed 1
	A_ 7
	G# 4
	volume_envelope 1, 7
	G# 4
	volume_envelope 8, 0
	A_ 4
	volume_envelope 1, 7
	A_ 3
	volume_envelope 8, 0
	B_ 4
	volume_envelope 1, 7
	B_ 4
	inc_octave
	volume_envelope 8, 0
	C# 7
	C_ 4
	volume_envelope 1, 7
	C_ 4
	volume_envelope 8, 0
	C# 4
	volume_envelope 1, 7
	C# 3
	volume_envelope 8, 0
	D_ 4
	volume_envelope 1, 7
	D_ 4
	volume_envelope 8, 0
	E_ 7
	D# 4
	volume_envelope 1, 7
	D# 4
	volume_envelope 8, 0
	E_ 4
	volume_envelope 1, 7
	E_ 3
	volume_envelope 8, 0
	F# 4
	volume_envelope 1, 7
	F# 4
	volume_envelope 8, 0
	G# 4
	volume_envelope 1, 7
	G# 3
	volume_envelope 8, 0
	A_ 8
	B_ 7
	inc_octave
	C# 4
	D_ 4
	MainLoop
	volume_envelope 7, 0
	speed 1
	octave 5
	Loop 8
	E_ 4
	F# 3
	E_ 4
	F# 4
	EndLoop
	duty 1
	volume_envelope 8, 0
	dec_octave
	dec_octave
	dec_octave
	B_ 7
	volume_envelope 2, 7
	B_ 8
	dec_octave
	volume_envelope 8, 0
	B_ 7
	B_ 8
	B_ 7
	volume_envelope 2, 7
	B_ 8
	volume_envelope 8, 0
	B_ 7
	volume_envelope 2, 7
	B_ 8
	volume_envelope 8, 0
	B_ 7
	volume_envelope 2, 7
	B_ 8
	volume_envelope 8, 0
	B_ 15
	inc_octave
	D_ 15
	E_ 15
	inc_octave
	duty 0
	volume_envelope 10, 0
	music_call Branch_f9848
	volume_envelope 10, 0
	D_ 8
	speed 10
	C# 6
	tie
	C# 6
	volume_envelope 3, 7
	speed 1
	C# 15
	duty 1
	volume_envelope 8, 0
	C# 7
	volume_envelope 2, 7
	C# 8
	rest 15
	volume_envelope 8, 0
	C# 7
	volume_envelope 2, 7
	C# 8
	rest 15
	volume_envelope 8, 0
	D_ 7
	volume_envelope 2, 7
	D_ 8
	rest 15
	volume_envelope 8, 0
	D_ 7
	volume_envelope 2, 7
	D_ 8
	duty 0
	volume_envelope 10, 0
	music_call Branch_f9848
	volume_envelope 10, 0
	C# 8
	dec_octave
	speed 10
	A_ 6
	tie
	A_ 6
	volume_envelope 3, 7
	speed 1
	A_ 15
	duty 1
	volume_envelope 8, 0
	inc_octave
	C# 7
	volume_envelope 2, 7
	C# 8
	rest 15
	volume_envelope 8, 0
	C# 7
	volume_envelope 2, 7
	C# 8
	rest 15
	volume_envelope 8, 0
	C# 15
	D_ 15
	E_ 15
	volume_envelope 2, 7
	E_ 15
	duty 0
	volume_envelope 10, 0
	F# 7
	F_ 7
	volume_envelope 3, 7
	F_ 1
	volume_envelope 10, 0
	F# 7
	F_ 8
	F# 7
	G# 7
	volume_envelope 3, 7
	G# 1
	volume_envelope 10, 0
	speed 10
	A_ 3
	tie
	speed 1
	A_ 15
	dec_octave
	duty 1
	volume_envelope 8, 0
	A_ 7
	volume_envelope 2, 7
	A_ 8
	duty 0
	volume_envelope 10, 0
	rest 15
	inc_octave
	E_ 7
	D# 7
	volume_envelope 3, 7
	D# 1
	volume_envelope 10, 0
	E_ 7
	D# 8
	E_ 7
	G# 7
	volume_envelope 3, 7
	G# 1
	volume_envelope 10, 0
	speed 9
	A_ 5
	speed 1
	dec_octave
	duty 1
	volume_envelope 8, 0
	A_ 7
	volume_envelope 2, 7
	A_ 8
	duty 0
	volume_envelope 10, 0
	rest 15
	inc_octave
	D_ 7
	C# 8
	D_ 7
	volume_envelope 3, 7
	D_ 8
	volume_envelope 10, 0
	A_ 7
	volume_envelope 3, 7
	A_ 8
	volume_envelope 10, 0
	G# 15
	tie
	G# 7
	volume_envelope 3, 7
	G# 8
	volume_envelope 10, 0
	F# 15
	volume_envelope 3, 7
	F# 7
	volume_envelope 10, 0
	G# 8
	speed 10
	E_ 6
	speed 1
	volume_envelope 3, 7
	E_ 15
	volume_envelope 10, 0
	C# 15
	D_ 15
	E_ 15
	volume_envelope 3, 7
	E_ 15
	volume_envelope 10, 0
	F# 7
	F_ 7
	volume_envelope 3, 7
	F_ 1
	volume_envelope 10, 0
	F# 7
	F_ 8
	F# 6
	volume_envelope 3, 7
	F# 1
	volume_envelope 10, 0
	G# 6
	volume_envelope 3, 7
	G# 2
	volume_envelope 10, 0
	speed 10
	A_ 3
	speed 1
	G# 15
	dec_octave
	duty 1
	volume_envelope 8, 0
	B_ 7
	inc_octave
	duty 0
	volume_envelope 10, 0
	F# 6
	volume_envelope 3, 7
	F# 2
	volume_envelope 10, 0
	E_ 15
	volume_envelope 3, 7
	E_ 15
	volume_envelope 10, 0
	B_ 15
	duty 1
	volume_envelope 8, 0
	dec_octave
	B_ 7
	inc_octave
	duty 0
	volume_envelope 10, 0
	G# 6
	volume_envelope 3, 7
	G# 2
	volume_envelope 10, 0
	speed 10
	A_ 3
	speed 1
	volume_envelope 3, 7
	A_ 15
	volume_envelope 10, 0
	B_ 6
	volume_envelope 3, 7
	B_ 1
	inc_octave
	volume_envelope 10, 0
	C# 6
	volume_envelope 3, 7
	C# 2
	volume_envelope 10, 0
	speed 10
	D_ 3
	speed 1
	volume_envelope 3, 7
	D_ 15
	dec_octave
	volume_envelope 10, 0
	F# 6
	volume_envelope 3, 7
	F# 1
	volume_envelope 10, 0
	B_ 6
	volume_envelope 3, 7
	B_ 2
	volume_envelope 10, 0
	A_ 15
	volume_envelope 3, 7
	A_ 15
	volume_envelope 10, 0
	G# 11
	volume_envelope 3, 7
	G# 4
	rest 7
	volume_envelope 10, 0
	A_ 7
	volume_envelope 3, 7
	A_ 1
	volume_envelope 10, 0
	speed 10
	A_ 6
	duty 2
	volume_envelope 7, 0
	speed 1
	inc_octave
	C# 7
	C_ 8
	C# 7
	D_ 8
	E_ 5
	F# 5
	G# 5
	A_ 4
	B_ 4
	inc_octave
	C# 4
	D_ 3
	EndMainLoop

Branch_f9848:
	C# 15
	volume_envelope 3, 7
	C# 15
	volume_envelope 10, 0
	E_ 15
	volume_envelope 3, 7
	E_ 7
	volume_envelope 10, 0
	C# 8
	D_ 15
	volume_envelope 3, 7
	D_ 15
	volume_envelope 10, 0
	F# 15
	volume_envelope 3, 7
	F# 7
	volume_envelope 10, 0
	D_ 8
	E_ 7
	volume_envelope 3, 7
	E_ 8
	volume_envelope 10, 0
	A_ 15
	G# 7
	volume_envelope 3, 7
	G# 8
	volume_envelope 10, 0
	F# 7
	volume_envelope 3, 7
	F# 8
	volume_envelope 10, 0
	E_ 15
	D_ 7
	volume_envelope 3, 7
	D_ 8
	dec_octave
	volume_envelope 10, 0
	B_ 15
	volume_envelope 3, 7
	B_ 7
	inc_octave
	music_ret


Music_ChallengeHall_Ch2:
	stereo_panning TRUE, TRUE
	vibrato_type 8
	vibrato_delay 15
	cutoff 7
	octave 3
	speed 10
	Loop 2
	rest 6
	EndLoop
	MainLoop
	duty 1
	volume_envelope 9, 0
	cutoff 8
	speed 10
	E_ 6
	tie
	E_ 6
	speed 1
	E_ 7
	volume_envelope 2, 7
	E_ 8
	dec_octave
	volume_envelope 8, 0
	E_ 7
	E_ 8
	E_ 7
	volume_envelope 2, 7
	E_ 8
	volume_envelope 8, 0
	E_ 7
	volume_envelope 2, 7
	E_ 8
	volume_envelope 8, 0
	E_ 7
	volume_envelope 2, 7
	E_ 8
	volume_envelope 8, 0
	E_ 15
	F# 15
	G# 15
	music_call Branch_f9a28
	B_ 8
	speed 10
	A_ 6
	tie
	A_ 6
	speed 1
	rest 15
	duty 1
	volume_envelope 8, 0
	A_ 7
	volume_envelope 2, 7
	A_ 8
	rest 15
	volume_envelope 8, 0
	A_ 7
	volume_envelope 2, 7
	A_ 8
	rest 15
	volume_envelope 8, 0
	B_ 7
	volume_envelope 2, 7
	B_ 8
	rest 15
	volume_envelope 8, 0
	B_ 7
	volume_envelope 2, 7
	B_ 8
	music_call Branch_f9a28
	G# 8
	speed 10
	E_ 6
	tie
	E_ 6
	speed 1
	rest 15
	duty 1
	volume_envelope 8, 0
	A_ 7
	volume_envelope 2, 7
	A_ 8
	rest 15
	volume_envelope 8, 0
	A_ 7
	volume_envelope 2, 7
	A_ 8
	rest 15
	volume_envelope 8, 0
	A_ 15
	B_ 15
	inc_octave
	C# 15
	volume_envelope 2, 7
	C# 15
	volume_envelope 8, 0
	D_ 7
	volume_envelope 2, 7
	D_ 8
	rest 15
	dec_octave
	volume_envelope 8, 0
	A_ 7
	volume_envelope 2, 7
	A_ 8
	rest 15
	inc_octave
	volume_envelope 8, 0
	D_ 7
	duty 2
	volume_envelope 6, 0
	inc_octave
	D_ 8
	A_ 7
	volume_envelope 2, 7
	A_ 8
	inc_octave
	volume_envelope 6, 0
	D_ 7
	volume_envelope 2, 7
	D_ 8
	volume_envelope 6, 0
	Loop 4
	E_ 4
	F# 3
	E_ 4
	F# 4
	EndLoop
	volume_envelope 2, 7
	F# 5
	rest 10
	dec_octave
	dec_octave
	duty 1
	volume_envelope 8, 0
	C# 7
	inc_octave
	duty 2
	volume_envelope 6, 0
	E_ 8
	A_ 7
	volume_envelope 2, 7
	A_ 8
	inc_octave
	volume_envelope 6, 0
	C# 7
	volume_envelope 2, 7
	C# 8
	volume_envelope 5, 0
	Loop 4
	D_ 4
	E_ 3
	D_ 4
	E_ 4
	EndLoop
	dec_octave
	B_ 15
	inc_octave
	D_ 7
	volume_envelope 2, 7
	D_ 8
	volume_envelope 5, 0
	C# 15
	duty 1
	volume_envelope 8, 0
	octave 2
	B_ 7
	inc_octave
	inc_octave
	vibrato_type 1
	duty 2
	volume_envelope 5, 0
	B_ 8
	inc_octave
	speed 10
	C# 6
	volume_envelope 2, 7
	speed 1
	C# 15
	vibrato_type 8
	duty 0
	volume_envelope 7, 0
	octave 2
	E_ 15
	F# 15
	A# 15
	rest 15
	duty 1
	volume_envelope 8, 0
	inc_octave
	D_ 7
	volume_envelope 2, 7
	D_ 8
	rest 15
	dec_octave
	volume_envelope 8, 0
	B_ 7
	volume_envelope 2, 7
	B_ 8
	rest 15
	inc_octave
	volume_envelope 8, 0
	D_ 7
	inc_octave
	duty 2
	volume_envelope 6, 0
	D_ 8
	A_ 7
	volume_envelope 2, 7
	A_ 8
	inc_octave
	volume_envelope 6, 0
	D_ 7
	volume_envelope 2, 7
	D_ 8
	volume_envelope 6, 0
	Loop 2
	E_ 4
	F# 3
	E_ 4
	F# 4
	EndLoop
	duty 0
	volume_envelope 7, 0
	dec_octave
	dec_octave
	F_ 15
	rest 7
	F_ 6
	rest 2
	speed 10
	F# 3
	speed 1
	rest 15
	duty 1
	volume_envelope 8, 0
	C# 7
	duty 0
	volume_envelope 7, 0
	E_ 6
	rest 2
	speed 10
	F# 3
	speed 1
	rest 15
	dec_octave
	duty 1
	volume_envelope 8, 0
	B_ 7
	inc_octave
	duty 0
	volume_envelope 7, 0
	D_ 6
	rest 2
	E_ 15
	duty 1
	volume_envelope 8, 0
	E_ 7
	volume_envelope 2, 7
	E_ 8
	duty 0
	volume_envelope 7, 0
	D_ 11
	rest 4
	duty 1
	volume_envelope 8, 0
	dec_octave
	B_ 7
	inc_octave
	duty 0
	volume_envelope 7, 0
	D_ 6
	rest 2
	C# 15
	duty 1
	volume_envelope 8, 0
	cutoff 7
	C# 5
	C# 5
	C# 5
	cutoff 8
	C# 7
	volume_envelope 2, 7
	C# 8
	volume_envelope 8, 0
	C# 7
	volume_envelope 2, 7
	C# 8
	duty 0
	volume_envelope 10, 0
	A_ 7
	volume_envelope 3, 7
	A_ 8
	rest 15
	speed 10
	rest 3
	EndMainLoop

Branch_f9a28:
	duty 0
	volume_envelope 7, 0
	A_ 15
	duty 1
	volume_envelope 8, 0
	A_ 7
	volume_envelope 2, 7
	A_ 8
	duty 0
	volume_envelope 7, 0
	inc_octave
	C# 15
	dec_octave
	duty 1
	volume_envelope 8, 0
	A_ 7
	duty 0
	volume_envelope 7, 0
	A_ 8
	B_ 15
	duty 1
	volume_envelope 8, 0
	B_ 7
	volume_envelope 2, 7
	B_ 8
	duty 0
	volume_envelope 7, 0
	inc_octave
	D_ 15
	dec_octave
	duty 1
	volume_envelope 8, 0
	B_ 7
	duty 0
	volume_envelope 7, 0
	B_ 8
	inc_octave
	C# 7
	volume_envelope 3, 7
	C# 8
	duty 1
	volume_envelope 8, 0
	C# 7
	volume_envelope 2, 7
	C# 8
	duty 0
	volume_envelope 7, 0
	E_ 7
	rest 8
	E_ 7
	rest 8
	volume_envelope 7, 0
	D_ 15
	duty 1
	volume_envelope 8, 0
	D_ 7
	volume_envelope 2, 7
	D_ 8
	dec_octave
	duty 0
	volume_envelope 7, 0
	G# 15
	inc_octave
	duty 1
	volume_envelope 8, 0
	D_ 7
	dec_octave
	duty 0
	volume_envelope 7, 0
	music_ret


Music_ChallengeHall_Ch3:
	stereo_panning TRUE, TRUE
	volume_envelope 2, 0
	wave 1
	echo 0
	cutoff 8
	cutoff 8
	speed 10
	Loop 2
	rest 6
	EndLoop
	MainLoop
	octave 1
	cutoff 8
	E_ 6
	tie
	E_ 6
	speed 1
	inc_octave
	E_ 7
	rest 8
	dec_octave
	cutoff 7
	E_ 7
	E_ 8
	cutoff 8
	E_ 7
	rest 8
	E_ 7
	rest 8
	E_ 7
	rest 8
	E_ 15
	F# 15
	G# 15
	music_call Branch_f9b7d
	music_call Branch_f9b92
	Loop 3
	music_call Branch_f9b7d
	EndLoop
	music_call Branch_f9b92
	music_call Branch_f9b7d
	A_ 15
	inc_octave
	E_ 7
	rest 8
	dec_octave
	E_ 15
	inc_octave
	E_ 7
	rest 8
	dec_octave
	A_ 7
	rest 8
	A_ 15
	B_ 15
	inc_octave
	C# 15
	dec_octave
	Loop 2
	D_ 15
	inc_octave
	A_ 7
	rest 8
	dec_octave
	A_ 15
	inc_octave
	F# 7
	rest 8
	dec_octave
	EndLoop
	C# 15
	inc_octave
	A_ 7
	rest 8
	dec_octave
	A_ 15
	inc_octave
	A_ 7
	rest 8
	dec_octave
	C# 15
	inc_octave
	A_ 7
	rest 8
	dec_octave
	A_ 15
	inc_octave
	E_ 7
	rest 8
	dec_octave
	B_ 15
	inc_octave
	B_ 7
	rest 8
	dec_octave
	F# 15
	inc_octave
	B_ 7
	rest 8
	dec_octave
	E_ 15
	inc_octave
	B_ 7
	rest 8
	dec_octave
	G# 15
	inc_octave
	G# 7
	rest 8
	dec_octave
	A_ 15
	inc_octave
	inc_octave
	C# 7
	rest 8
	dec_octave
	dec_octave
	G_ 15
	inc_octave
	inc_octave
	C# 7
	rest 8
	dec_octave
	dec_octave
	F# 7
	rest 8
	F# 15
	G# 15
	A# 15
	B_ 15
	inc_octave
	B_ 7
	rest 8
	dec_octave
	C# 15
	inc_octave
	F# 7
	rest 8
	dec_octave
	D_ 15
	inc_octave
	B_ 7
	rest 8
	dec_octave
	D# 15
	inc_octave
	F# 7
	rest 8
	dec_octave
	E_ 15
	inc_octave
	E_ 7
	rest 8
	dec_octave
	F_ 15
	inc_octave
	G# 7
	rest 8
	dec_octave
	F# 15
	inc_octave
	inc_octave
	C# 7
	rest 8
	dec_octave
	dec_octave
	C# 15
	inc_octave
	A_ 7
	rest 8
	dec_octave
	B_ 15
	inc_octave
	B_ 7
	rest 8
	dec_octave
	F# 15
	inc_octave
	F# 7
	rest 8
	dec_octave
	E_ 15
	inc_octave
	B_ 7
	rest 8
	dec_octave
	G# 15
	inc_octave
	G# 7
	rest 8
	dec_octave
	A_ 7
	rest 8
	cutoff 7
	A_ 5
	A_ 5
	A_ 5
	cutoff 8
	A_ 7
	rest 8
	A_ 7
	rest 8
	A_ 7
	rest 8
	rest 15
	speed 10
	rest 3
	EndMainLoop

Branch_f9b7d:
	A_ 15
	inc_octave
	E_ 7
	rest 8
	dec_octave
	E_ 15
	inc_octave
	E_ 7
	rest 8
	dec_octave
	A_ 15
	inc_octave
	F# 7
	rest 8
	dec_octave
	E_ 15
	inc_octave
	F# 7
	rest 8
	dec_octave
	music_ret

Branch_f9b92:
	A_ 15
	inc_octave
	A_ 7
	rest 8
	dec_octave
	E_ 15
	inc_octave
	inc_octave
	C# 7
	rest 8
	dec_octave
	dec_octave
	A_ 15
	inc_octave
	B_ 7
	rest 8
	dec_octave
	E_ 15
	inc_octave
	B_ 7
	rest 8
	dec_octave
	music_ret


Music_ChallengeHall_Ch4:
	speed 1
	speed 10
	Loop 2
	rest 6
	EndLoop
	MainLoop
	speed 1
	snare1 4
	snare2 3
	snare2 4
	snare2 4
	Loop 7
	snare2 4
	snare2 3
	snare2 4
	snare2 4
	EndLoop
	snare1 15
	snare1 7
	snare1 8
	snare1 15
	snare1 15
	snare1 15
	snare1 4
	snare2 3
	snare2 4
	snare2 4
	snare1 15
	snare1 15
	Loop 15
	bass 15
	snare1 15
	bass 15
	snare1 15
	bass 15
	snare1 4
	snare2 3
	snare2 4
	snare2 4
	bass 15
	snare1 15
	EndLoop
	bass 15
	snare1 4
	snare2 3
	snare2 4
	snare2 4
	snare1 15
	snare1 15
	speed 10
	snare1 3
	rest 3
	EndMainLoop
