Music_Club1_Ch1:
	speed 5
	stereo_panning TRUE, TRUE
	vibrato_type 8
	vibrato_delay 20
	cutoff 8
	octave 3
	duty 0
	volume_envelope 9, 2
	cutoff 8
	C# 2
	dec_octave
	A_ 2
	inc_octave
	C# 2
	A_ 2
	duty 2
	volume_envelope 7, 0
	inc_octave
	speed 1
	C# 8
	volume_envelope 2, 7
	C# 2
	volume_envelope 5, -2
	A_ 4
	volume_envelope 7, 0
	A_ 4
	volume_envelope 2, 7
	A_ 2
	dec_octave
	duty 0
	volume_envelope 9, 2
	speed 5
	C# 2
	dec_octave
	A# 2
	inc_octave
	C# 2
	A# 2
	duty 2
	volume_envelope 7, 0
	inc_octave
	speed 1
	C# 8
	volume_envelope 2, 7
	C# 2
	speed 5
	volume_envelope 8, 0
	dec_octave
	B_ 1
	inc_octave
	C_ 1
	vibrato_type 1
	vibrato_delay 10
	C# 4
	dec_octave
	vibrato_type 8
	vibrato_delay 20
	A_ 2
	inc_octave
	C# 4
	dec_octave
	B_ 2
	volume_envelope 2, 7
	B_ 2
	rest 2
	duty 0
	volume_envelope 9, 4
	cutoff 8
	E_ 6
	rest 2
	MainLoop
	duty 0
	volume_envelope 10, 0
	octave 3
	rest 6
	A_ 4
	E_ 2
	A_ 4
	B_ 2
	inc_octave
	C_ 4
	C# 8
	volume_envelope 4, 7
	C# 4
	volume_envelope 10, 0
	C# 2
	D_ 4
	E_ 2
	volume_envelope 4, 7
	E_ 2
	rest 2
	volume_envelope 10, 0
	D# 1
	E_ 7
	D_ 6
	dec_octave
	A_ 4
	F# 2
	volume_envelope 4, 7
	F# 2
	rest 2
	inc_octave
	volume_envelope 10, 0
	C_ 1
	C# 3
	volume_envelope 4, 7
	C# 2
	volume_envelope 10, 0
	C# 2
	C_ 4
	dec_octave
	B_ 6
	volume_envelope 9, 3
	D_ 4
	rest 2
	dec_octave
	A_ 2
	vibrato_type 1
	duty 2
	volume_envelope 5, 0
	inc_octave
	inc_octave
	inc_octave
	C_ 1
	C# 5
	dec_octave
	dec_octave
	vibrato_type 8
	duty 0
	volume_envelope 10, 0
	A_ 4
	E_ 2
	A_ 4
	B_ 2
	inc_octave
	C_ 4
	C# 6
	dec_octave
	dec_octave
	volume_envelope 9, 3
	A# 1
	rest 5
	inc_octave
	inc_octave
	volume_envelope 10, 0
	C# 2
	D_ 4
	E_ 2
	volume_envelope 4, 7
	E_ 2
	rest 2
	volume_envelope 10, 0
	D# 1
	E_ 7
	D_ 6
	dec_octave
	A_ 4
	F# 2
	volume_envelope 4, 7
	F# 2
	rest 2
	volume_envelope 10, 0
	inc_octave
	C_ 1
	C# 3
	volume_envelope 4, 7
	C# 2
	volume_envelope 10, 0
	C# 2
	C_ 4
	dec_octave
	B_ 8
	volume_envelope 4, 7
	B_ 4
	volume_envelope 10, 0
	E_ 2
	F_ 1
	F# 5
	A_ 6
	B_ 4
	A_ 2
	volume_envelope 4, 7
	A_ 2
	rest 2
	volume_envelope 10, 0
	E_ 1
	F_ 7
	A_ 6
	B_ 4
	A_ 2
	volume_envelope 4, 7
	A_ 2
	rest 2
	inc_octave
	volume_envelope 10, 0
	C_ 1
	C# 5
	volume_envelope 4, 7
	C# 2
	volume_envelope 10, 0
	C# 4
	volume_envelope 4, 7
	C# 2
	volume_envelope 10, 0
	C# 4
	C_ 2
	C# 4
	dec_octave
	F# 2
	volume_envelope 4, 7
	F# 2
	rest 2
	inc_octave
	volume_envelope 10, 0
	D# 1
	E_ 5
	D_ 6
	C# 4
	volume_envelope 4, 7
	C# 2
	volume_envelope 10, 0
	C_ 1
	C# 7
	dec_octave
	A_ 4
	F# 2
	A_ 4
	F# 2
	volume_envelope 4, 7
	F# 2
	rest 2
	volume_envelope 10, 0
	inc_octave
	C_ 1
	C# 5
	D_ 1
	C# 1
	dec_octave
	A_ 4
	F# 2
	A_ 4
	F# 2
	volume_envelope 4, 7
	F# 2
	rest 2
	inc_octave
	volume_envelope 10, 0
	C_ 1
	C# 5
	volume_envelope 4, 7
	C# 2
	volume_envelope 10, 0
	C# 4
	volume_envelope 4, 7
	C# 2
	volume_envelope 10, 0
	C# 4
	dec_octave
	A_ 2
	inc_octave
	C# 4
	dec_octave
	B_ 14
	duty 2
	volume_envelope 6, 0
	G# 2
	B_ 1
	volume_envelope 3, 7
	B_ 1
	inc_octave
	volume_envelope 6, 0
	E_ 1
	volume_envelope 3, 7
	E_ 1
	volume_envelope 6, 0
	G# 1
	volume_envelope 3, 7
	G# 1
	volume_envelope 6, 0
	B_ 1
	volume_envelope 3, 7
	B_ 1
	inc_octave
	volume_envelope 6, 0
	E_ 1
	volume_envelope 3, 7
	E_ 1
	EndMainLoop


Music_Club1_Ch2:
	speed 5
	stereo_panning TRUE, TRUE
	vibrato_type 8
	vibrato_delay 20
	cutoff 7
	octave 2
	duty 0
	volume_envelope 9, 2
	cutoff 8
	A_ 2
	E_ 2
	A_ 2
	inc_octave
	C# 2
	duty 2
	volume_envelope 5, 0
	speed 1
	A_ 8
	rest 2
	inc_octave
	C# 8
	rest 2
	speed 5
	duty 0
	volume_envelope 9, 2
	dec_octave
	dec_octave
	A# 2
	E_ 2
	A# 2
	inc_octave
	C# 2
	duty 2
	volume_envelope 5, 0
	speed 1
	A# 8
	rest 2
	dec_octave
	speed 5
	duty 0
	volume_envelope 9, 2
	G_ 1
	G# 1
	A_ 2
	D_ 2
	F# 2
	A_ 2
	F# 2
	G# 3
	rest 3
	volume_envelope 9, 4
	B_ 6
	rest 2
	MainLoop
	octave 2
	rest 4
	inc_octave
	volume_envelope 9, 3
	C# 5
	rest 7
	C# 4
	rest 2
	C# 2
	rest 4
	dec_octave
	A# 2
	duty 2
	volume_envelope 5, 0
	octave 5
	C# 1
	D_ 3
	C# 2
	dec_octave
	A# 4
	dec_octave
	duty 0
	volume_envelope 9, 3
	E_ 4
	rest 2
	vibrato_type 1
	duty 2
	volume_envelope 5, 0
	octave 5
	C_ 1
	C# 5
	duty 0
	volume_envelope 9, 3
	octave 3
	D_ 2
	duty 2
	volume_envelope 5, 0
	inc_octave
	A_ 4
	F# 2
	E_ 4
	D_ 2
	rest 4
	E_ 4
	rest 2
	E_ 2
	rest 4
	E_ 2
	F# 4
	A_ 2
	B_ 4
	A_ 2
	rest 2
	duty 0
	volume_envelope 9, 3
	rest 2
	dec_octave
	C# 2
	volume_envelope 6, 0
	C# 4
	volume_envelope 3, 7
	C# 4
	rest 2
	volume_envelope 9, 3
	C# 2
	vibrato_type 8
	volume_envelope 6, 0
	D# 4
	E_ 6
	volume_envelope 3, 7
	E_ 2
	inc_octave
	inc_octave
	vibrato_type 1
	duty 2
	volume_envelope 5, 0
	C# 1
	D_ 3
	C# 2
	dec_octave
	A# 4
	F# 2
	rest 4
	inc_octave
	C_ 1
	C# 5
	dec_octave
	dec_octave
	duty 0
	volume_envelope 9, 3
	D_ 2
	duty 2
	volume_envelope 5, 0
	inc_octave
	A_ 4
	F# 2
	E_ 4
	D_ 2
	rest 4
	D# 1
	E_ 3
	rest 2
	E_ 2
	D# 4
	D_ 6
	dec_octave
	duty 0
	volume_envelope 9, 3
	D_ 4
	rest 2
	dec_octave
	A_ 2
	rest 4
	A_ 2
	duty 2
	volume_envelope 5, 0
	inc_octave
	inc_octave
	F_ 1
	F# 3
	D_ 2
	C# 4
	dec_octave
	duty 0
	volume_envelope 9, 3
	D_ 4
	rest 2
	dec_octave
	A_ 2
	rest 4
	A_ 2
	inc_octave
	inc_octave
	duty 2
	volume_envelope 5, 0
	E_ 1
	F_ 3
	D_ 2
	C# 4
	dec_octave
	duty 0
	volume_envelope 9, 3
	D_ 4
	rest 2
	dec_octave
	A_ 2
	rest 4
	B_ 2
	inc_octave
	duty 2
	volume_envelope 5, 0
	E_ 4
	G# 2
	B_ 4
	inc_octave
	E_ 2
	rest 4
	dec_octave
	vibrato_type 8
	duty 0
	volume_envelope 6, 0
	A# 2
	volume_envelope 3, 7
	A# 2
	rest 2
	inc_octave
	volume_envelope 6, 0
	C_ 1
	C# 5
	dec_octave
	B_ 6
	A# 4
	rest 2
	G# 1
	A_ 5
	volume_envelope 9, 3
	D_ 2
	volume_envelope 6, 0
	F# 4
	D_ 2
	F# 4
	dec_octave
	volume_envelope 9, 3
	A_ 4
	rest 2
	volume_envelope 6, 0
	inc_octave
	G# 1
	A_ 5
	volume_envelope 9, 3
	D_ 2
	volume_envelope 6, 0
	F# 4
	D_ 2
	F# 4
	dec_octave
	volume_envelope 9, 3
	A_ 4
	rest 2
	inc_octave
	volume_envelope 6, 0
	G# 1
	A_ 5
	volume_envelope 9, 3
	D_ 2
	volume_envelope 6, 0
	A_ 4
	rest 2
	A_ 4
	dec_octave
	volume_envelope 9, 3
	A_ 2
	inc_octave
	volume_envelope 6, 0
	A_ 4
	G# 12
	dec_octave
	volume_envelope 9, 3
	A_ 4
	rest 2
	B_ 4
	rest 2
	inc_octave
	D_ 2
	EndMainLoop


Music_Club1_Ch3:
	speed 5
	stereo_panning TRUE, TRUE
	volume_envelope 2, 0
	wave 1
	echo 96
	cutoff 7
	octave 1
	A_ 2
	rest 2
	E_ 2
	A_ 2
	rest 4
	A# 2
	rest 2
	E_ 2
	A# 2
	rest 4
	B_ 2
	cutoff 4
	B_ 2
	cutoff 7
	F# 2
	F_ 2
	inc_octave
	cutoff 4
	D_ 2
	dec_octave
	cutoff 7
	E_ 2
	rest 4
	inc_octave
	E_ 6
	dec_octave
	E_ 2
	MainLoop
	octave 1
	A_ 4
	inc_octave
	cutoff 4
	A_ 2
	dec_octave
	cutoff 7
	C# 6
	E_ 4
	inc_octave
	cutoff 4
	A_ 2
	dec_octave
	cutoff 7
	F_ 4
	inc_octave
	cutoff 4
	A# 2
	dec_octave
	cutoff 7
	F# 4
	inc_octave
	cutoff 4
	F# 2
	cutoff 7
	C# 6
	dec_octave
	A# 4
	inc_octave
	inc_octave
	cutoff 4
	C# 2
	dec_octave
	dec_octave
	cutoff 7
	F# 6
	music_call Branch_fa01a
	octave 1
	cutoff 7
	A_ 4
	inc_octave
	cutoff 4
	A_ 2
	dec_octave
	cutoff 7
	C# 6
	E_ 4
	inc_octave
	cutoff 4
	A_ 2
	dec_octave
	cutoff 7
	F_ 4
	inc_octave
	inc_octave
	cutoff 4
	C# 2
	dec_octave
	dec_octave
	cutoff 7
	F# 4
	inc_octave
	cutoff 4
	F# 2
	cutoff 7
	C# 6
	dec_octave
	A# 4
	inc_octave
	inc_octave
	cutoff 4
	E_ 2
	dec_octave
	dec_octave
	cutoff 7
	F# 6
	music_call Branch_fa01a
	octave 1
	cutoff 7
	D_ 4
	inc_octave
	cutoff 4
	F# 2
	dec_octave
	cutoff 7
	D_ 4
	rest 2
	D_ 4
	inc_octave
	cutoff 4
	A_ 2
	dec_octave
	cutoff 7
	D_ 4
	inc_octave
	cutoff 4
	F# 2
	dec_octave
	cutoff 7
	D_ 4
	inc_octave
	cutoff 4
	F_ 2
	dec_octave
	cutoff 7
	D_ 4
	rest 2
	D_ 4
	inc_octave
	cutoff 4
	A_ 2
	dec_octave
	cutoff 7
	D_ 4
	inc_octave
	cutoff 4
	F_ 2
	dec_octave
	cutoff 7
	C# 4
	inc_octave
	cutoff 4
	E_ 2
	dec_octave
	cutoff 7
	C# 6
	E_ 4
	inc_octave
	inc_octave
	cutoff 4
	E_ 2
	dec_octave
	dec_octave
	cutoff 7
	F_ 6
	F# 4
	inc_octave
	cutoff 4
	A# 2
	cutoff 7
	C# 6
	dec_octave
	A# 4
	inc_octave
	cutoff 4
	F# 2
	dec_octave
	cutoff 7
	F# 6
	B_ 4
	inc_octave
	cutoff 4
	A_ 2
	dec_octave
	cutoff 7
	F# 6
	A_ 4
	inc_octave
	cutoff 4
	F# 2
	dec_octave
	cutoff 7
	A# 4
	inc_octave
	inc_octave
	cutoff 4
	D_ 2
	dec_octave
	dec_octave
	cutoff 7
	B_ 4
	inc_octave
	cutoff 4
	A_ 2
	dec_octave
	cutoff 7
	F# 6
	D_ 4
	inc_octave
	cutoff 4
	F# 2
	dec_octave
	cutoff 7
	F# 6
	E_ 4
	inc_octave
	cutoff 4
	A_ 2
	dec_octave
	cutoff 6
	E_ 6
	cutoff 7
	E_ 4
	inc_octave
	cutoff 4
	F# 2
	dec_octave
	cutoff 7
	E_ 4
	inc_octave
	cutoff 4
	F# 2
	cutoff 7
	E_ 4
	cutoff 4
	G# 2
	dec_octave
	cutoff 7
	E_ 4
	inc_octave
	cutoff 4
	F# 2
	dec_octave
	cutoff 7
	F# 4
	inc_octave
	cutoff 4
	G# 2
	dec_octave
	cutoff 7
	G# 4
	inc_octave
	cutoff 4
	B_ 2
	cutoff 7
	EndMainLoop

Branch_fa01a:
	octave 1
	B_ 4
	inc_octave
	cutoff 4
	A_ 2
	dec_octave
	cutoff 7
	C# 6
	D_ 4
	inc_octave
	cutoff 4
	F# 2
	dec_octave
	cutoff 7
	D# 6
	E_ 4
	inc_octave
	cutoff 4
	B_ 2
	dec_octave
	cutoff 7
	B_ 6
	G# 4
	inc_octave
	cutoff 4
	B_ 2
	dec_octave
	cutoff 7
	E_ 4
	inc_octave
	cutoff 4
	E_ 2
	music_ret


Music_Club1_Ch4:
	speed 5
	octave 1
	bass 2
	rest 2
	bass 2
	snare1 2
	snare3 2
	snare4 2
	bass 2
	rest 2
	bass 2
	snare1 2
	snare3 2
	snare4 2
	snare1 4
	snare2 1
	snare2 1
	snare1 4
	snare1 2
	rest 4
	snare2 1
	snare2 1
	snare1 4
	snare1 2
	MainLoop
	music_call Branch_fa06f
	bass 4
	Loop 4
	snare1 2
	EndLoop
	music_call Branch_fa06f
	bass 4
	snare2 1
	snare2 1
	snare1 4
	snare1 2
	EndMainLoop

Branch_fa06f:
	Loop 15
	bass 4
	snare3 2
	snare1 4
	snare3 2
	EndLoop
	music_ret
