Music_Club3_Ch1:
	speed 9
	stereo_panning 1, 1
	vibrato_type 5
	vibrato_delay 20
	cutoff 8
	MainLoop
	duty 0
	Loop 2
	octave 2
	volume_envelope 9, 0
	rest 4
	G_ 2
	volume_envelope 3, 7
	G_ 1
	inc_octave
	volume_envelope 9, 0
	C_ 1
	volume_envelope 3, 7
	C_ 2
	dec_octave
	volume_envelope 9, 0
	A# 6
	tie
	A# 12
	volume_envelope 3, 7
	A# 4
	rest 4
	volume_envelope 9, 0
	G_ 2
	volume_envelope 3, 7
	G_ 1
	inc_octave
	volume_envelope 9, 0
	speed 1
	C_ 5
	tie
	C# 4
	tie
	speed 9
	C_ 1
	volume_envelope 3, 7
	C_ 1
	dec_octave
	volume_envelope 9, 0
	A# 6
	tie
	A# 12
	volume_envelope 3, 7
	A# 4
	EndLoop
	duty 1
	volume_envelope 9, 3
	cutoff 7
	music_call Branch_fa330
	music_call Branch_fa403
	A# 1
	F_ 1
	F# 1
	G_ 1
	inc_octave
	D_ 1
	inc_octave
	D_ 1
	dec_octave
	D_ 1
	inc_octave
	F_ 1
	dec_octave
	D_ 1
	D# 1
	inc_octave
	G_ 1
	octave 2
	G_ 1
	octave 4
	C# 1
	C_ 1
	octave 2
	G_ 1
	inc_octave
	cutoff 8
	speed 1
	G_ 5
	volume_envelope 3, 7
	G_ 4
	speed 9
	volume_envelope 8, 0
	C# 1
	C_ 1
	dec_octave
	A# 1
	volume_envelope 9, 3
	cutoff 7
	music_call Branch_fa330
	music_call Branch_fa403
	inc_octave
	D_ 1
	dec_octave
	F_ 1
	F# 1
	G_ 1
	inc_octave
	D_ 1
	inc_octave
	D_ 1
	dec_octave
	D_ 1
	inc_octave
	F_ 1
	dec_octave
	C# 1
	D_ 1
	inc_octave
	F# 1
	octave 2
	G_ 1
	octave 4
	C# 1
	C_ 1
	octave 2
	G_ 1
	octave 4
	duty 2
	volume_envelope 7, 0
	speed 1
	cutoff 8
	G_ 5
	C# 4
	C_ 5
	dec_octave
	A# 4
	G_ 5
	C# 4
	C_ 5
	dec_octave
	A# 4
	duty 1
	cutoff 7
	speed 9
	music_call Branch_fa370
	music_call Branch_fa403
	A# 1
	F_ 1
	F# 1
	G_ 1
	inc_octave
	D_ 1
	inc_octave
	D_ 1
	dec_octave
	D_ 1
	inc_octave
	F_ 1
	dec_octave
	D_ 1
	D# 1
	inc_octave
	G_ 1
	octave 2
	G_ 1
	octave 4
	C# 1
	C_ 1
	octave 2
	G_ 1
	inc_octave
	cutoff 8
	speed 1
	G_ 5
	volume_envelope 3, 7
	G_ 4
	speed 9
	volume_envelope 8, 0
	C# 1
	C_ 1
	dec_octave
	A# 1
	music_call Branch_fa370
	music_call Branch_fa403
	inc_octave
	D_ 1
	dec_octave
	F_ 1
	F# 1
	G_ 1
	inc_octave
	D_ 1
	inc_octave
	D_ 1
	dec_octave
	D_ 1
	inc_octave
	F_ 1
	dec_octave
	C_ 1
	C# 1
	inc_octave
	F# 1
	octave 2
	G_ 1
	octave 4
	C# 1
	C_ 1
	dec_octave
	A# 1
	inc_octave
	duty 2
	speed 1
	cutoff 8
	volume_envelope 7, 0
	G_ 5
	C# 4
	C_ 5
	dec_octave
	A# 4
	G_ 5
	C# 4
	C_ 5
	dec_octave
	A# 4
	speed 9
	cutoff 8
	EndMainLoop

Branch_fa330:
	octave 2
	G_ 1
	inc_octave
	D_ 1
	inc_octave
	D_ 1
	dec_octave
	D_ 1
	inc_octave
	C# 1
	C_ 1
	dec_octave
	D_ 1
	A# 1
	D_ 1
	dec_octave
	G_ 1
	inc_octave
	A# 1
	dec_octave
	speed 1
	cutoff 8
	F_ 5
	F# 4
	speed 9
	cutoff 7
	G_ 1
	inc_octave
	E_ 1
	dec_octave
	F_ 1
	F# 1
	G_ 1
	inc_octave
	D_ 1
	inc_octave
	D_ 1
	dec_octave
	D_ 1
	inc_octave
	F_ 1
	E_ 1
	dec_octave
	D_ 1
	inc_octave
	G_ 1
	octave 2
	G_ 1
	octave 4
	C# 1
	C_ 1
	octave 2
	G_ 1
	A# 1
	inc_octave
	C_ 1
	dec_octave
	F_ 1
	F# 1
	music_ret

Branch_fa370:
	octave 2
	volume_envelope 9, 3
	cutoff 7
	G_ 1
	inc_octave
	D_ 1
	inc_octave
	D_ 1
	dec_octave
	D_ 1
	inc_octave
	C# 1
	C_ 1
	dec_octave
	D_ 1
	A# 1
	D_ 1
	dec_octave
	G_ 1
	inc_octave
	A# 1
	dec_octave
	speed 1
	cutoff 8
	F_ 5
	F# 4
	octave 4
	duty 2
	volume_envelope 7, 0
	G_ 3
	volume_envelope 1, 7
	G_ 2
	inc_octave
	volume_envelope 7, 0
	D_ 2
	volume_envelope 1, 7
	dec_octave
	G_ 2
	inc_octave
	volume_envelope 7, 0
	G_ 3
	volume_envelope 1, 7
	D_ 2
	volume_envelope 7, 0
	D_ 2
	volume_envelope 1, 7
	G_ 2
	dec_octave
	volume_envelope 7, 0
	G_ 3
	volume_envelope 1, 7
	inc_octave
	D_ 2
	volume_envelope 7, 0
	D_ 2
	volume_envelope 1, 7
	dec_octave
	G_ 2
	inc_octave
	volume_envelope 7, 0
	G_ 3
	volume_envelope 1, 7
	D_ 2
	volume_envelope 7, 0
	D_ 2
	volume_envelope 1, 7
	G_ 2
	speed 9
	duty 1
	cutoff 7
	volume_envelope 9, 3
	octave 2
	G_ 1
	inc_octave
	D_ 1
	inc_octave
	D_ 1
	dec_octave
	D_ 1
	inc_octave
	F_ 1
	E_ 1
	dec_octave
	D_ 1
	inc_octave
	G_ 1
	octave 2
	G_ 1
	octave 4
	C# 1
	C_ 1
	octave 2
	G_ 1
	octave 5
	duty 2
	speed 1
	cutoff 8
	volume_envelope 7, 0
	octave 5
	G_ 5
	C# 4
	C_ 5
	dec_octave
	A# 4
	G_ 5
	C# 4
	C_ 5
	dec_octave
	A# 4
	speed 9
	duty 1
	cutoff 7
	volume_envelope 9, 3
	music_ret

Branch_fa403:
	octave 2
	G_ 1
	inc_octave
	D_ 1
	inc_octave
	D_ 1
	dec_octave
	D_ 1
	inc_octave
	C# 1
	C_ 1
	dec_octave
	D_ 1
	A# 1
	D_ 1
	dec_octave
	G_ 1
	inc_octave
	A# 1
	dec_octave
	speed 1
	cutoff 8
	F_ 5
	F# 4
	speed 9
	cutoff 7
	G_ 1
	music_ret


Music_Club3_Ch2:
	speed 9
	stereo_panning 1, 1
	vibrato_type 5
	vibrato_delay 20
	cutoff 8
	MainLoop
	duty 0
	Loop 2
	octave 2
	volume_envelope 7, 0
	rest 4
	D_ 2
	volume_envelope 3, 7
	D_ 1
	volume_envelope 7, 0
	F_ 1
	volume_envelope 3, 7
	F_ 2
	volume_envelope 7, 0
	E_ 6
	tie
	E_ 12
	volume_envelope 3, 7
	E_ 4
	rest 4
	volume_envelope 7, 0
	D_ 2
	volume_envelope 3, 7
	D_ 1
	volume_envelope 7, 0
	speed 1
	F_ 5
	tie
	F# 4
	speed 9
	F_ 1
	volume_envelope 3, 7
	F_ 1
	volume_envelope 7, 0
	E_ 6
	tie
	E_ 12
	volume_envelope 3, 7
	E_ 4
	EndLoop
	duty 1
	Loop 2
	music_call Branch_fa5a6
	speed 9
	rest 1
	inc_octave
	volume_envelope 8, 0
	speed 1
	D_ 5
	volume_envelope 3, 7
	D_ 4
	speed 9
	volume_envelope 9, 3
	cutoff 7
	G_ 1
	dec_octave
	speed 1
	cutoff 8
	volume_envelope 8, 0
	F_ 5
	F# 4
	inc_octave
	speed 9
	volume_envelope 9, 3
	cutoff 7
	G_ 1
	G_ 1
	volume_envelope 3, 7
	G_ 1
	volume_envelope 9, 3
	F_ 1
	volume_envelope 3, 7
	F_ 2
	dec_octave
	volume_envelope 9, 3
	D_ 1
	inc_octave
	inc_octave
	volume_envelope 8, 0
	speed 1
	D_ 5
	volume_envelope 3, 7
	D_ 4
	volume_envelope 9, 3
	speed 9
	rest 1
	dec_octave
	speed 1
	cutoff 8
	G_ 5
	D_ 4
	dec_octave
	A# 5
	volume_envelope 3, 7
	A# 4
	inc_octave
	inc_octave
	volume_envelope 9, 3
	D_ 5
	volume_envelope 3, 7
	D_ 4
	speed 9
	volume_envelope 8, 0
	rest 1
	dec_octave
	speed 1
	D_ 5
	volume_envelope 3, 7
	D_ 4
	speed 9
	volume_envelope 9, 3
	cutoff 7
	G_ 1
	dec_octave
	speed 1
	cutoff 8
	volume_envelope 8, 0
	F_ 5
	F# 4
	inc_octave
	speed 9
	volume_envelope 9, 3
	cutoff 7
	A# 1
	volume_envelope 3, 7
	A# 2
	inc_octave
	volume_envelope 9, 3
	C# 1
	volume_envelope 3, 7
	C# 1
	dec_octave
	volume_envelope 9, 3
	G_ 1
	volume_envelope 3, 7
	G_ 1
	dec_octave
	speed 1
	volume_envelope 8, 0
	A# 5
	volume_envelope 3, 7
	C_ 4
	speed 9
	rest 1
	dec_octave
	volume_envelope 8, 0
	cutoff 8
	A# 1
	B_ 1
	inc_octave
	C_ 1
	music_call Branch_fa5a6
	speed 9
	rest 1
	inc_octave
	speed 1
	volume_envelope 8, 0
	D_ 5
	volume_envelope 3, 7
	D_ 4
	speed 9
	volume_envelope 9, 3
	cutoff 7
	G_ 1
	dec_octave
	speed 1
	cutoff 8
	volume_envelope 8, 0
	F_ 5
	F# 4
	inc_octave
	speed 9
	volume_envelope 9, 3
	cutoff 7
	G_ 1
	G_ 1
	volume_envelope 3, 7
	G_ 1
	volume_envelope 9, 3
	F_ 1
	volume_envelope 3, 7
	F_ 2
	volume_envelope 9, 3
	D_ 1
	inc_octave
	volume_envelope 8, 0
	speed 1
	G_ 5
	volume_envelope 3, 7
	G_ 4
	speed 9
	rest 1
	dec_octave
	dec_octave
	speed 1
	volume_envelope 8, 0
	G_ 5
	volume_envelope 3, 7
	G_ 4
	inc_octave
	volume_envelope 8, 0
	D_ 5
	volume_envelope 3, 7
	D_ 4
	speed 9
	rest 1
	rest 1
	speed 1
	volume_envelope 8, 0
	D_ 5
	volume_envelope 3, 7
	D_ 4
	speed 9
	volume_envelope 9, 3
	cutoff 7
	G_ 1
	dec_octave
	speed 1
	cutoff 8
	volume_envelope 8, 0
	F_ 5
	F# 4
	inc_octave
	inc_octave
	speed 9
	volume_envelope 9, 3
	cutoff 7
	C# 1
	volume_envelope 3, 7
	C# 2
	volume_envelope 9, 3
	C_ 1
	volume_envelope 3, 7
	C_ 1
	dec_octave
	volume_envelope 9, 3
	G_ 1
	volume_envelope 3, 7
	G_ 1
	volume_envelope 8, 0
	speed 1
	F_ 5
	volume_envelope 3, 7
	F_ 4
	volume_envelope 8, 0
	speed 9
	rest 1
	dec_octave
	cutoff 8
	D_ 1
	D# 1
	E_ 1
	EndLoop
	EndMainLoop

Branch_fa5a6:
	octave 3
	rest 1
	volume_envelope 8, 0
	speed 1
	D_ 5
	volume_envelope 3, 7
	D_ 4
	speed 9
	volume_envelope 9, 3
	cutoff 7
	G_ 1
	dec_octave
	speed 1
	volume_envelope 8, 0
	cutoff 8
	F_ 5
	F# 4
	inc_octave
	speed 9
	cutoff 7
	volume_envelope 9, 3
	G_ 1
	G_ 1
	volume_envelope 3, 7
	G_ 1
	volume_envelope 9, 3
	F_ 1
	volume_envelope 3, 7
	F_ 2
	volume_envelope 9, 3
	E_ 1
	inc_octave
	volume_envelope 8, 0
	cutoff 8
	speed 1
	D_ 5
	volume_envelope 3, 7
	D_ 4
	volume_envelope 8, 0
	speed 9
	rest 1
	dec_octave
	speed 1
	cutoff 8
	G_ 5
	D_ 4
	dec_octave
	A# 5
	volume_envelope 3, 7
	A# 4
	volume_envelope 8, 0
	inc_octave
	inc_octave
	D_ 5
	volume_envelope 3, 7
	D_ 4
	speed 9
	rest 1
	dec_octave
	speed 1
	volume_envelope 8, 0
	D_ 5
	volume_envelope 3, 7
	D_ 4
	speed 9
	volume_envelope 9, 3
	cutoff 7
	G_ 1
	dec_octave
	speed 1
	volume_envelope 8, 0
	cutoff 8
	F_ 5
	F# 4
	speed 9
	inc_octave
	volume_envelope 9, 3
	cutoff 7
	A# 1
	volume_envelope 3, 7
	A# 2
	inc_octave
	volume_envelope 9, 3
	C# 1
	volume_envelope 3, 7
	C# 1
	dec_octave
	volume_envelope 9, 3
	G_ 1
	volume_envelope 3, 7
	G_ 1
	dec_octave
	volume_envelope 9, 3
	A# 1
	volume_envelope 3, 7
	A# 1
	cutoff 8
	volume_envelope 8, 0
	A# 1
	volume_envelope 3, 7
	A# 2
	music_ret


Music_Club3_Ch3:
	speed 9
	stereo_panning 1, 1
	volume_envelope 2, 0
	wave 1
	echo 0
	cutoff 8
	Loop 4
	octave 1
	G_ 1
	rest 1
	G_ 14
	rest 1
	inc_octave
	F_ 1
	rest 2
	G_ 1
	rest 2
	dec_octave
	G_ 1
	rest 1
	E_ 3
	F_ 1
	rest 1
	F# 1
	rest 1
	EndLoop
	Loop 2
	octave 1
	G_ 1
	octave 3
	cutoff 4
	G_ 1
	rest 1
	octave 1
	cutoff 8
	G_ 1
	inc_octave
	F_ 1
	G_ 1
	rest 1
	dec_octave
	G_ 1
	rest 1
	inc_octave
	G_ 1
	rest 1
	octave 4
	cutoff 4
	G_ 1
	rest 1
	octave 1
	cutoff 8
	E_ 1
	F_ 1
	octave 4
	cutoff 4
	G_ 1
	octave 1
	cutoff 8
	G_ 1
	octave 3
	cutoff 4
	G_ 1
	rest 1
	octave 1
	cutoff 8
	G_ 1
	inc_octave
	F_ 1
	G_ 1
	rest 1
	dec_octave
	G_ 1
	rest 1
	inc_octave
	G_ 1
	rest 1
	inc_octave
	cutoff 4
	F_ 1
	rest 1
	cutoff 8
	E_ 1
	octave 1
	F_ 1
	F# 1
	D# 1
	octave 3
	cutoff 4
	G_ 1
	rest 1
	octave 1
	cutoff 8
	D# 1
	inc_octave
	D_ 1
	D# 1
	rest 1
	dec_octave
	D# 1
	rest 1
	inc_octave
	D# 1
	rest 1
	octave 4
	cutoff 4
	G_ 1
	rest 1
	octave 1
	cutoff 8
	C_ 1
	C# 1
	octave 4
	cutoff 4
	G_ 1
	octave 1
	cutoff 8
	D# 1
	octave 3
	cutoff 4
	G_ 1
	rest 1
	octave 1
	cutoff 8
	D# 1
	inc_octave
	D_ 1
	D# 1
	rest 1
	dec_octave
	D# 1
	rest 1
	inc_octave
	D# 1
	rest 1
	inc_octave
	cutoff 4
	F_ 1
	rest 1
	dec_octave
	cutoff 8
	D_ 1
	D# 1
	E_ 1
	dec_octave
	C_ 1
	octave 3
	cutoff 4
	G_ 1
	rest 1
	octave 1
	cutoff 8
	C_ 1
	A# 1
	inc_octave
	C_ 1
	rest 1
	dec_octave
	C_ 1
	rest 1
	inc_octave
	C_ 1
	rest 1
	octave 4
	cutoff 4
	G_ 1
	rest 1
	octave 1
	cutoff 8
	A_ 1
	A# 1
	octave 4
	cutoff 4
	G_ 1
	octave 1
	cutoff 8
	C_ 1
	octave 3
	cutoff 4
	G_ 1
	rest 1
	octave 1
	cutoff 8
	C_ 1
	A# 1
	inc_octave
	C_ 1
	rest 1
	dec_octave
	C_ 1
	rest 1
	inc_octave
	C_ 1
	rest 1
	inc_octave
	cutoff 4
	F_ 1
	rest 1
	cutoff 8
	E_ 1
	octave 1
	A# 1
	B_ 1
	D_ 1
	octave 3
	cutoff 4
	G_ 1
	rest 1
	octave 1
	cutoff 8
	D_ 1
	inc_octave
	C_ 1
	D_ 1
	rest 1
	dec_octave
	D_ 1
	rest 1
	inc_octave
	D_ 1
	rest 1
	octave 4
	cutoff 4
	C_ 1
	rest 1
	octave 2
	cutoff 6
	A# 1
	dec_octave
	cutoff 8
	C_ 1
	C# 1
	D_ 1
	octave 3
	cutoff 4
	G_ 1
	rest 1
	octave 1
	cutoff 8
	D_ 1
	inc_octave
	C_ 1
	D_ 1
	rest 1
	dec_octave
	D_ 1
	rest 1
	F_ 1
	rest 1
	inc_octave
	cutoff 4
	A# 1
	rest 1
	dec_octave
	cutoff 8
	A# 1
	B_ 1
	inc_octave
	C_ 1
	EndLoop
	EndMainLoop


Music_Club3_Ch4:
	speed 9
	octave 1
	MainLoop
	Loop 3
	music_call Branch_fa796
	snare1 2
	snare4 2
	music_call Branch_fa796
	snare1 2
	snare3 1
	snare1 1
	EndLoop
	music_call Branch_fa796
	snare1 2
	snare4 2
	music_call Branch_fa796
	snare1 1
	speed 1
	snare3 5
	snare1 4
	speed 9
	snare1 1
	snare1 1
	EndMainLoop

Branch_fa796:
	bass 2
	snare3 2
	snare1 2
	snare3 1
	snare1 1
	snare3 1
	bass 1
	snare4 1
	bass 1
	music_ret
