Music_Credits_Ch1:
	speed 13
	stereo_panning TRUE, TRUE
	vibrato_type 1
	vibrato_delay 20
	cutoff 8
	octave 2
	duty 1
	volume_envelope 4, -7
	note F_, 1
	volume_envelope 6, 0
	note F_, 2
	tie
	speed 1
	note F_, 6
	volume_envelope 3, 7
	note F_, 7
	speed 13
	volume_envelope 6, -7
	note G_, 1
	volume_envelope 7, 0
	note G_, 2
	tie
	speed 1
	note G_, 6
	volume_envelope 4, 7
	note G_, 7
	speed 13
	volume_envelope 6, -7
	note A_, 1
	volume_envelope 8, 0
	note A_, 2
	tie
	speed 1
	note A_, 6
	volume_envelope 4, 7
	note A_, 7
	speed 13
	volume_envelope 8, 0
	note B_, 3
	volume_envelope 4, 7
	note B_, 1
	inc_octave
	volume_envelope 8, 0
	note C_, 1
	volume_envelope 3, 7
	note C_, 1
	music_call Branch_fb5bc
	octave 2
	note F_, 1
	volume_envelope 3, 7
	note F_, 1
	music_call Branch_fb36b
	octave 4
	volume_envelope 10, 0
	speed 1
	note D#, 3
	note E_, 10
	tie
	speed 13
	note E_, 4
	volume_envelope 3, 7
	note E_, 1
	volume_envelope 10, 0
	note F_, 1
	speed 1
	note G_, 5
	volume_envelope 3, 7
	note G_, 8
	speed 13
	volume_envelope 10, 0
	note E_, 5
	volume_envelope 3, 7
	note E_, 1
	volume_envelope 10, 0
	note F_, 1
	speed 1
	note G_, 5
	volume_envelope 3, 7
	note G_, 8
	speed 13
	volume_envelope 10, 0
	note C_, 5
	volume_envelope 3, 7
	note C_, 1
	dec_octave
	speed 1
	volume_envelope 10, 0
	note A_, 6
	volume_envelope 3, 7
	note A_, 13
	rest 7
	inc_octave
	volume_envelope 10, 0
	note C#, 3
	note D_, 10
	tie
	speed 13
	note D_, 2
	volume_envelope 3, 7
	note D_, 1
	volume_envelope 10, 0
	note C_, 1
	volume_envelope 3, 7
	note C_, 1
	dec_octave
	volume_envelope 10, 0
	note G#, 1
	volume_envelope 3, 7
	note G#, 1
	volume_envelope 10, 0
	speed 1
	note F#, 3
	note G_, 10
	tie
	speed 13
	note G_, 3
	volume_envelope 3, 7
	note G_, 1
	volume_envelope 10, 0
	note G_, 1
	speed 1
	note A_, 5
	volume_envelope 3, 7
	note A_, 8
	volume_envelope 10, 0
	note B_, 5
	volume_envelope 3, 7
	note B_, 8
	volume_envelope 10, 0
	note B_, 3
	inc_octave
	note C_, 10
	tie
	speed 13
	note C_, 2
	tie
	speed 1
	note C_, 6
	volume_envelope 3, 7
	note C_, 13
	rest 7
	dec_octave
	volume_envelope 10, 0
	note B_, 3
	inc_octave
	note C_, 10
	note D_, 5
	volume_envelope 3, 7
	note D_, 8
	volume_envelope 10, 0
	note E_, 5
	volume_envelope 3, 7
	note E_, 8
	speed 13
	volume_envelope 10, 0
	note F_, 3
	note E_, 1
	speed 1
	note C_, 6
	volume_envelope 3, 7
	note C_, 13
	rest 7
	dec_octave
	volume_envelope 10, 0
	note A_, 6
	volume_envelope 3, 7
	note A_, 13
	rest 7
	volume_envelope 10, 0
	note B_, 3
	inc_octave
	note C_, 10
	tie
	speed 13
	note C_, 2
	tie
	speed 1
	note C_, 6
	volume_envelope 3, 7
	note C_, 13
	rest 7
	volume_envelope 10, 0
	note C#, 3
	note D_, 10
	tie
	speed 13
	note D_, 2
	volume_envelope 3, 7
	note D_, 1
	volume_envelope 10, 0
	note C_, 8
	tie
	note C_, 8
	tie
	note C_, 8
	volume_envelope 3, 7
	note C_, 1
	music_call Branch_fb36b
	octave 4
	speed 1
	volume_envelope 10, 0
	note D_, 3
	note D#, 10
	tie
	speed 13
	note D#, 4
	volume_envelope 3, 7
	note D#, 1
	volume_envelope 10, 0
	note D_, 1
	speed 1
	note C_, 6
	volume_envelope 3, 7
	note C_, 7
	volume_envelope 10, 0
	note E_, 3
	note F_, 10
	tie
	speed 13
	note F_, 3
	volume_envelope 3, 7
	note F_, 1
	volume_envelope 10, 0
	note D#, 1
	note F_, 1
	volume_envelope 3, 7
	note F_, 1
	speed 1
	volume_envelope 10, 0
	note F#, 3
	note G_, 10
	tie
	speed 13
	note G_, 4
	dec_octave
	dec_octave
	speed 1
	volume_envelope 9, 0
	note E_, 6
	note A_, 7
	inc_octave
	note C_, 6
	dec_octave
	note A_, 7
	note G_, 6
	inc_octave
	note C_, 7
	note F_, 6
	note D_, 7
	speed 13
	note E_, 8
	tie
	note E_, 1
	volume_envelope 3, 7
	note E_, 2
	music_end

Branch_fb36b:
	speed 13
	octave 2
	volume_envelope 8, 0
	note A_, 1
	rest 1
	note G_, 1
	volume_envelope 3, 7
	note G_, 1
	volume_envelope 8, 0
	note A_, 1
	note B_, 1
	inc_octave
	note C_, 1
	volume_envelope 3, 7
	note C_, 1
	rest 1
	music_call Branch_fb5bc
	octave 2
	note A_, 2
	note A_, 1
	volume_envelope 3, 7
	note A_, 1
	volume_envelope 8, 0
	note A_, 1
	volume_envelope 3, 7
	note A_, 1
	volume_envelope 8, 0
	note B_, 1
	inc_octave
	music_call Branch_fb5e4
	octave 4
	volume_envelope 10, 0
	note C_, 1
	volume_envelope 3, 7
	note C_, 1
	dec_octave
	volume_envelope 10, 0
	note G_, 4
	tie
	note G_, 8
	volume_envelope 3, 7
	note G_, 1
	volume_envelope 10, 0
	note E_, 1
	note F_, 1
	speed 1
	note G_, 6
	volume_envelope 3, 7
	note G_, 7
	volume_envelope 10, 0
	note F#, 3
	note G_, 10
	tie
	speed 13
	note G_, 4
	volume_envelope 3, 7
	note G_, 1
	volume_envelope 10, 0
	note F_, 1
	volume_envelope 3, 7
	note F_, 1
	volume_envelope 10, 0
	speed 1
	note E_, 3
	note F_, 10
	tie
	speed 13
	note F_, 2
	note E_, 1
	tie
	speed 1
	note E_, 6
	note F_, 4
	note E_, 3
	note D_, 13
	note C_, 13
	volume_envelope 3, 7
	note C_, 13
	volume_envelope 10, 0
	note C#, 3
	note D_, 10
	tie
	speed 13
	note D_, 4
	tie
	note D_, 8
	volume_envelope 3, 7
	note D_, 2
	music_call Branch_fb5e4
	octave 4
	volume_envelope 10, 0
	note E_, 1
	volume_envelope 3, 7
	note E_, 1
	dec_octave
	volume_envelope 10, 0
	note G_, 4
	tie
	note G_, 8
	volume_envelope 3, 7
	note G_, 1
	volume_envelope 10, 0
	note E_, 1
	note F_, 1
	speed 1
	note G_, 6
	volume_envelope 3, 7
	note G_, 7
	volume_envelope 10, 0
	note G_, 3
	note G#, 10
	tie
	note G#, 13
	volume_envelope 3, 7
	note G#, 13
	inc_octave
	volume_envelope 10, 0
	note C_, 13
	volume_envelope 3, 7
	note C_, 13
	volume_envelope 10, 0
	note C#, 3
	note D_, 10
	note C_, 13
	volume_envelope 3, 7
	note C_, 13
	volume_envelope 10, 0
	note F#, 3
	note G_, 10
	tie
	speed 13
	note G_, 2
	note F_, 1
	volume_envelope 3, 7
	note F_, 1
	volume_envelope 10, 0
	note C_, 1
	note D_, 1
	volume_envelope 3, 7
	note D_, 1
	volume_envelope 10, 0
	speed 1
	note D#, 3
	note E_, 10
	tie
	speed 13
	note E_, 8
	music_call Branch_fb60c
	speed 13
	octave 4
	note G_, 8
	volume_envelope 3, 7
	note G_, 1
	volume_envelope 10, 0
	speed 1
	note F#, 3
	note G_, 10
	volume_envelope 3, 7
	note G_, 13
	volume_envelope 10, 0
	note F_, 13
	volume_envelope 3, 7
	note F_, 13
	volume_envelope 10, 0
	note E_, 13
	volume_envelope 3, 7
	note E_, 13
	volume_envelope 10, 0
	note E_, 6
	note F_, 7
	note E_, 13
	dec_octave
	note A_, 6
	volume_envelope 3, 7
	note A_, 7
	inc_octave
	volume_envelope 10, 0
	note C_, 6
	volume_envelope 3, 7
	note C_, 7
	dec_octave
	volume_envelope 10, 0
	note F_, 6
	volume_envelope 3, 7
	note F_, 13
	rest 7
	volume_envelope 10, 0
	note A_, 13
	inc_octave
	note C_, 6
	volume_envelope 3, 7
	note C_, 7
	volume_envelope 10, 0
	note D#, 3
	note E_, 10
	tie
	note E_, 13
	note F_, 6
	volume_envelope 3, 7
	note F_, 7
	volume_envelope 10, 0
	note E_, 6
	volume_envelope 3, 7
	note E_, 7
	volume_envelope 10, 0
	note C_, 6
	volume_envelope 3, 7
	note C_, 13
	rest 7
	volume_envelope 10, 0
	note C#, 3
	note D_, 10
	tie
	note D_, 13
	note C#, 6
	note C_, 7
	dec_octave
	note B_, 13
	inc_octave
	note C_, 6
	volume_envelope 3, 7
	note C_, 7
	volume_envelope 10, 0
	note G_, 6
	volume_envelope 3, 7
	note G_, 7
	volume_envelope 10, 0
	speed 13
	note E_, 5
	music_call Branch_fb60c
	speed 13
	octave 4
	note G_, 3
	volume_envelope 3, 7
	note G_, 1
	volume_envelope 10, 0
	note G_, 1
	speed 1
	note A_, 6
	volume_envelope 3, 7
	note A_, 7
	volume_envelope 10, 0
	note B_, 6
	volume_envelope 3, 7
	note B_, 7
	volume_envelope 10, 0
	note B_, 3
	inc_octave
	note C_, 10
	volume_envelope 3, 7
	note C_, 13
	dec_octave
	volume_envelope 10, 0
	note F#, 3
	note G_, 10
	volume_envelope 3, 7
	note G_, 13
	volume_envelope 10, 0
	note F_, 13
	volume_envelope 3, 7
	note F_, 13
	volume_envelope 10, 0
	note E_, 13
	volume_envelope 3, 7
	note E_, 13
	volume_envelope 10, 0
	note E_, 3
	note F_, 10
	tie
	note F_, 13
	note E_, 13
	note C_, 6
	volume_envelope 3, 7
	note C_, 7
	dec_octave
	volume_envelope 10, 0
	note A_, 6
	volume_envelope 3, 7
	note A_, 7
	rest 13
	inc_octave
	volume_envelope 10, 0
	note C_, 13
	dec_octave
	note A_, 6
	volume_envelope 3, 7
	note A_, 7
	inc_octave
	volume_envelope 10, 0
	note E_, 3
	note F_, 10
	tie
	note F_, 13
	note E_, 13
	note C_, 6
	volume_envelope 3, 7
	note C_, 7
	dec_octave
	volume_envelope 10, 0
	note G#, 6
	volume_envelope 3, 7
	note G#, 7
	rest 13
	inc_octave
	volume_envelope 10, 0
	note C_, 6
	volume_envelope 3, 7
	note C_, 7
	rest 13
	volume_envelope 10, 0
	note F#, 3
	note G_, 10
	tie
	speed 13
	note G_, 8
	volume_envelope 3, 7
	note G_, 1
	dec_octave
	dec_octave
	volume_envelope 8, 0
	note G_, 1
	volume_envelope 2, 7
	note G_, 1
	volume_envelope 8, 0
	note A_, 1
	volume_envelope 2, 7
	note A_, 1
	volume_envelope 8, 0
	note B_, 1
	speed 1
	volume_envelope 10, 0
	note G_, 3
	note A_, 3
	note B_, 3
	inc_octave
	note C_, 4
	note D_, 3
	note E_, 3
	note F_, 3
	note G_, 4
	music_call Branch_fb651
	octave 3
	volume_envelope 10, 0
	note G#, 3
	note A_, 10
	tie
	note A_, 13
	volume_envelope 3, 7
	note A_, 13
	volume_envelope 10, 0
	note C_, 13
	volume_envelope 3, 7
	note C_, 13
	volume_envelope 10, 0
	note C#, 3
	note D_, 10
	note C_, 13
	volume_envelope 3, 7
	note C_, 13
	volume_envelope 10, 0
	note F#, 3
	note G_, 10
	tie
	note G_, 13
	volume_envelope 3, 7
	note G_, 13
	volume_envelope 10, 0
	note D#, 3
	note E_, 10
	volume_envelope 3, 7
	note E_, 13
	volume_envelope 10, 0
	note D_, 13
	note C_, 13
	volume_envelope 3, 7
	note C_, 13
	volume_envelope 10, 0
	note C#, 3
	note D_, 10
	tie
	speed 13
	note D_, 4
	tie
	note D_, 8
	volume_envelope 3, 7
	note D_, 1
	dec_octave
	volume_envelope 8, 0
	note G_, 1
	speed 1
	note A_, 6
	volume_envelope 2, 7
	note A_, 7
	volume_envelope 8, 0
	note B_, 6
	volume_envelope 2, 7
	note B_, 7
	music_call Branch_fb651
	octave 3
	volume_envelope 10, 0
	note G_, 3
	note G#, 10
	tie
	note G#, 13
	volume_envelope 3, 7
	note G#, 13
	inc_octave
	volume_envelope 10, 0
	note C_, 13
	volume_envelope 3, 7
	note C_, 13
	volume_envelope 10, 0
	note C#, 3
	note D_, 10
	note C_, 13
	volume_envelope 3, 7
	note C_, 13
	volume_envelope 10, 0
	note F#, 3
	note G_, 10
	tie
	speed 13
	note G_, 2
	note F_, 1
	volume_envelope 3, 7
	note F_, 1
	volume_envelope 10, 0
	note C_, 1
	note D_, 1
	volume_envelope 3, 7
	note D_, 1
	music_ret

Branch_fb5bc:
	octave 2
	speed 13
	rest 2
	volume_envelope 8, 0
	note G_, 1
	inc_octave
	note C_, 1
	rest 1
	dec_octave
	note A_, 1
	volume_envelope 3, 7
	note A_, 1
	rest 2
	volume_envelope 8, 0
	note B_, 1
	volume_envelope 3, 7
	note B_, 1
	volume_envelope 8, 0
	note A_, 1
	rest 1
	inc_octave
	note C_, 1
	volume_envelope 3, 7
	note C_, 1
	rest 3
	dec_octave
	volume_envelope 8, 0
	note G_, 1
	inc_octave
	note C_, 1
	rest 1
	music_ret

Branch_fb5e4:
	octave 3
	volume_envelope 10, 0
	speed 1
	note F#, 3
	note G_, 10
	note F_, 6
	volume_envelope 3, 7
	note F_, 7
	speed 13
	volume_envelope 8, 0
	note E_, 4
	volume_envelope 3, 7
	note E_, 1
	volume_envelope 10, 0
	note G_, 1
	volume_envelope 3, 7
	note G_, 1
	inc_octave
	volume_envelope 10, 0
	speed 1
	note C#, 3
	note D_, 10
	tie
	speed 13
	note D_, 4
	volume_envelope 3, 7
	note D_, 1
	music_ret

Branch_fb60c:
	octave 4
	speed 13
	volume_envelope 3, 7
	note E_, 1
	volume_envelope 10, 0
	speed 1
	note D#, 3
	note E_, 10
	speed 13
	volume_envelope 3, 7
	note E_, 1
	volume_envelope 10, 0
	note F_, 1
	volume_envelope 3, 7
	note F_, 1
	volume_envelope 10, 0
	note G_, 1
	volume_envelope 3, 7
	note G_, 1
	volume_envelope 10, 0
	speed 1
	note G#, 3
	note A_, 10
	tie
	speed 13
	note A_, 8
	volume_envelope 3, 7
	note A_, 1
	volume_envelope 10, 0
	speed 1
	note G#, 3
	note A_, 10
	volume_envelope 3, 7
	note A_, 13
	volume_envelope 10, 0
	note G_, 13
	volume_envelope 3, 7
	note G_, 13
	volume_envelope 10, 0
	note F_, 13
	volume_envelope 3, 7
	note F_, 13
	volume_envelope 10, 0
	note F#, 3
	note G_, 10
	tie
	music_ret

Branch_fb651:
	octave 3
	volume_envelope 10, 0
	note D#, 3
	note E_, 10
	note F_, 6
	volume_envelope 3, 7
	note F_, 7
	volume_envelope 10, 0
	note G_, 5
	volume_envelope 3, 7
	note G_, 8
	inc_octave
	volume_envelope 10, 0
	note C#, 3
	note D_, 10
	tie
	note D_, 13
	note C_, 6
	volume_envelope 3, 7
	note C_, 13
	rest 7
	dec_octave
	speed 13
	volume_envelope 10, 0
	note G_, 6
	tie
	note G_, 6
	tie
	note G_, 8
	volume_envelope 3, 7
	note G_, 1
	volume_envelope 10, 0
	speed 1
	note D#, 3
	note E_, 10
	note F_, 5
	volume_envelope 3, 7
	note F_, 8
	volume_envelope 10, 0
	note G_, 5
	volume_envelope 3, 7
	note G_, 8
	music_ret


Music_Credits_Ch2:
	stereo_panning TRUE, TRUE
	vibrato_type 1
	vibrato_delay 20
	cutoff 8
	duty 1
	octave 2
	speed 13
	volume_envelope 3, -7
	note A_, 1
	volume_envelope 7, 0
	note A_, 2
	tie
	speed 1
	note A_, 6
	volume_envelope 2, 7
	note A_, 7
	speed 13
	volume_envelope 7, -7
	note B_, 1
	volume_envelope 8, 0
	note B_, 2
	tie
	speed 1
	note B_, 6
	volume_envelope 3, 7
	note B_, 7
	inc_octave
	speed 13
	volume_envelope 5, -7
	note C_, 1
	volume_envelope 9, 0
	note C_, 2
	tie
	speed 1
	note C_, 6
	volume_envelope 3, 7
	note C_, 7
	speed 13
	volume_envelope 9, 0
	note D_, 3
	volume_envelope 3, 7
	note D_, 1
	music_call Branch_fb79e
	octave 4
	speed 13
	volume_envelope 8, 0
	note C_, 3
	dec_octave
	volume_envelope 9, 2
	note C_, 1
	rest 2
	inc_octave
	volume_envelope 8, 0
	note D_, 1
	cutoff 4
	note E_, 1
	cutoff 8
	note C_, 3
	dec_octave
	volume_envelope 9, 2
	note D_, 1
	rest 2
	inc_octave
	volume_envelope 8, 0
	note D_, 1
	cutoff 4
	note E_, 1
	dec_octave
	cutoff 8
	note A_, 3
	volume_envelope 9, 2
	note C_, 1
	rest 2
	cutoff 4
	volume_envelope 8, 0
	note F_, 1
	cutoff 8
	volume_envelope 9, 2
	note C_, 1
	volume_envelope 8, 0
	note G#, 3
	volume_envelope 9, 2
	note C_, 1
	volume_envelope 8, 0
	note G#, 1
	rest 1
	note F_, 1
	volume_envelope 9, 2
	note C_, 1
	volume_envelope 8, 0
	note E_, 3
	volume_envelope 9, 2
	note D_, 1
	rest 1
	dec_octave
	volume_envelope 8, 0
	note B_, 1
	inc_octave
	cutoff 4
	note C_, 1
	volume_envelope 9, 2
	cutoff 8
	note D_, 1
	volume_envelope 8, 0
	note E_, 3
	volume_envelope 9, 2
	note C_, 1
	rest 1
	volume_envelope 8, 0
	note E_, 1
	cutoff 4
	note F_, 1
	cutoff 8
	volume_envelope 9, 2
	note C_, 1
	volume_envelope 8, 0
	note A_, 3
	volume_envelope 9, 2
	note C_, 1
	cutoff 4
	note A_, 1
	rest 1
	note F_, 1
	cutoff 8
	volume_envelope 9, 2
	note C_, 1
	volume_envelope 8, 0
	note A_, 3
	volume_envelope 9, 2
	note C_, 1
	rest 1
	volume_envelope 8, 0
	note G#, 3
	rest 1
	music_call Branch_fb79e
	octave 4
	speed 13
	volume_envelope 8, 0
	note C_, 1
	tie
	note C_, 2
	dec_octave
	dec_octave
	volume_envelope 9, 2
	note G#, 1
	rest 2
	inc_octave
	volume_envelope 8, 0
	note A#, 1
	dec_octave
	volume_envelope 9, 2
	note G#, 1
	inc_octave
	inc_octave
	volume_envelope 8, 0
	note C_, 1
	tie
	note C_, 2
	dec_octave
	volume_envelope 9, 2
	note C_, 1
	rest 1
	inc_octave
	volume_envelope 8, 0
	note C_, 1
	note C_, 1
	dec_octave
	volume_envelope 9, 2
	note C_, 1
	inc_octave
	volume_envelope 8, 0
	note E_, 1
	tie
	note E_, 4
	dec_octave
	dec_octave
	speed 1
	volume_envelope 8, 0
	note C_, 6
	note F_, 7
	note A_, 6
	note F_, 7
	note E_, 6
	note G_, 7
	inc_octave
	note D_, 6
	dec_octave
	note B_, 7
	inc_octave
	speed 13
	note C_, 8
	tie
	note C_, 1
	volume_envelope 2, 7
	note C_, 2
	music_end

Branch_fb79e:
	speed 13
	octave 3
	volume_envelope 9, 0
	note E_, 1
	volume_envelope 3, 7
	note E_, 1
	music_call Branch_fba68
	octave 2
	volume_envelope 9, 0
	note A_, 1
	volume_envelope 3, 7
	note A_, 1
	inc_octave
	volume_envelope 9, 0
	note C_, 1
	volume_envelope 9, 2
	note C_, 1
	dec_octave
	volume_envelope 9, 0
	note B_, 1
	volume_envelope 3, 7
	note B_, 1
	inc_octave
	volume_envelope 9, 0
	note C_, 1
	note D_, 1
	note E_, 1
	volume_envelope 3, 7
	note E_, 1
	rest 1
	music_call Branch_fba68
	volume_envelope 9, 0
	octave 3
	speed 1
	note E_, 3
	note F_, 10
	tie
	speed 13
	note F_, 1
	note E_, 1
	volume_envelope 3, 7
	note E_, 1
	volume_envelope 9, 0
	note C_, 1
	volume_envelope 3, 7
	note C_, 1
	volume_envelope 9, 0
	note D_, 3
	volume_envelope 9, 2
	duty 1
	Loop 2
	rest 2
	note C_, 1
	rest 1
	EndLoop
	Loop 2
	rest 2
	note D_, 1
	rest 1
	EndLoop
	rest 2
	note C_, 1
	rest 2
	music_call Branch_fba9d
	rest 2
	duty 1
	volume_envelope 9, 2
	octave 3
	note C_, 1
	rest 1
	Loop 4
	rest 2
	note C_, 1
	rest 1
	EndLoop
	rest 2
	duty 2
	volume_envelope 7, 0
	speed 1
	note E_, 3
	note F_, 10
	note A_, 5
	volume_envelope 2, 7
	note A_, 8
	inc_octave
	volume_envelope 7, 0
	note C_, 5
	volume_envelope 2, 7
	note C_, 8
	volume_envelope 7, 0
	note E_, 5
	volume_envelope 2, 7
	note E_, 8
	dec_octave
	volume_envelope 9, 2
	duty 1
	note C_, 13
	inc_octave
	duty 2
	volume_envelope 7, 0
	note E_, 3
	note F_, 10
	tie
	note F_, 13
	note E_, 5
	note F_, 4
	note E_, 4
	dec_octave
	duty 1
	volume_envelope 9, 2
	note C_, 13
	duty 2
	volume_envelope 7, 0
	note A_, 5
	volume_envelope 2, 7
	note A_, 8
	inc_octave
	volume_envelope 7, 0
	note C_, 5
	volume_envelope 2, 7
	note C_, 8
	volume_envelope 7, 0
	note C#, 3
	note D_, 10
	dec_octave
	duty 1
	volume_envelope 9, 2
	note C_, 13
	rest 13
	dec_octave
	volume_envelope 8, 0
	note B_, 3
	inc_octave
	note C_, 10
	tie
	speed 13
	note C_, 3
	rest 1
	note E_, 1
	volume_envelope 9, 2
	note C_, 1
	speed 1
	volume_envelope 8, 0
	note A#, 3
	note B_, 10
	tie
	speed 13
	note B_, 4
	rest 1
	inc_octave
	note C_, 1
	dec_octave
	duty 1
	volume_envelope 9, 2
	note D_, 1
	volume_envelope 8, 0
	note E_, 5
	rest 1
	music_call Branch_fba9d
	duty 1
	octave 3
	note C_, 1
	note D_, 1
	volume_envelope 9, 2
	note C_, 1
	speed 1
	volume_envelope 8, 0
	note E_, 3
	note F_, 10
	tie
	speed 13
	note F_, 1
	rest 1
	note F_, 1
	rest 1
	note G#, 1
	note F_, 1
	volume_envelope 9, 2
	note C_, 1
	inc_octave
	volume_envelope 8, 0
	speed 1
	note D_, 3
	note D#, 10
	tie
	speed 13
	note D#, 2
	dec_octave
	dec_octave
	volume_envelope 9, 2
	note G#, 1
	rest 1
	inc_octave
	volume_envelope 8, 0
	note G#, 1
	note A#, 1
	dec_octave
	volume_envelope 9, 3
	note G#, 1
	inc_octave
	inc_octave
	volume_envelope 8, 0
	note C_, 3
	dec_octave
	volume_envelope 9, 2
	note C_, 1
	rest 1
	volume_envelope 8, 0
	speed 1
	note F#, 3
	note G_, 10
	inc_octave
	speed 13
	cutoff 4
	note C_, 1
	dec_octave
	note B_, 1
	cutoff 8
	note A#, 1
	rest 1
	music_call Branch_fbacb
	octave 3
	volume_envelope 9, 2
	cutoff 8
	note D_, 1
	speed 1
	volume_envelope 8, 0
	note B_, 3
	inc_octave
	note C_, 10
	speed 13
	rest 1
	note C_, 1
	dec_octave
	volume_envelope 9, 2
	note C_, 1
	inc_octave
	volume_envelope 8, 0
	note C_, 1
	rest 1
	note C_, 1
	dec_octave
	volume_envelope 9, 2
	note C_, 1
	inc_octave
	volume_envelope 8, 0
	note C_, 1
	note C_, 1
	dec_octave
	cutoff 4
	note F_, 1
	cutoff 8
	volume_envelope 9, 2
	note C_, 1
	volume_envelope 8, 0
	cutoff 4
	note D_, 1
	rest 1
	cutoff 8
	note F_, 1
	volume_envelope 9, 2
	note C_, 1
	inc_octave
	volume_envelope 8, 0
	note C_, 2
	cutoff 4
	note D_, 1
	dec_octave
	cutoff 8
	volume_envelope 9, 2
	note C_, 1
	volume_envelope 8, 0
	cutoff 4
	note A_, 1
	rest 1
	cutoff 8
	note B_, 1
	volume_envelope 9, 2
	note C_, 1
	volume_envelope 8, 0
	cutoff 4
	note A_, 1
	cutoff 8
	note G_, 1
	cutoff 4
	note A_, 1
	cutoff 8
	volume_envelope 9, 2
	note C_, 1
	inc_octave
	volume_envelope 8, 0
	note C_, 2
	dec_octave
	speed 1
	note B_, 3
	inc_octave
	note C_, 10
	dec_octave
	speed 13
	cutoff 4
	note B_, 1
	cutoff 6
	note A#, 2
	music_call Branch_fbacb
	octave 4
	note G_, 1
	cutoff 8
	note E_, 1
	speed 13
	rest 1
	note C_, 1
	dec_octave
	volume_envelope 9, 2
	note C_, 1
	inc_octave
	volume_envelope 8, 0
	note C_, 1
	rest 1
	note C_, 1
	dec_octave
	volume_envelope 9, 2
	note C_, 1
	inc_octave
	volume_envelope 8, 0
	cutoff 7
	note C_, 2
	cutoff 8
	note C_, 1
	dec_octave
	volume_envelope 9, 2
	note C_, 1
	volume_envelope 8, 0
	cutoff 4
	note F_, 1
	rest 1
	cutoff 8
	note A_, 1
	volume_envelope 9, 2
	note C_, 1
	inc_octave
	volume_envelope 8, 0
	cutoff 7
	note C_, 2
	cutoff 8
	note C_, 1
	dec_octave
	volume_envelope 9, 2
	note C_, 1
	volume_envelope 8, 0
	cutoff 4
	note F_, 1
	rest 1
	note G#, 1
	cutoff 8
	volume_envelope 9, 2
	note C_, 1
	speed 1
	volume_envelope 8, 0
	note B_, 3
	inc_octave
	note C_, 10
	tie
	speed 13
	note C_, 3
	rest 1
	dec_octave
	note A_, 1
	inc_octave
	cutoff 4
	note C_, 1
	dec_octave
	cutoff 8
	volume_envelope 9, 2
	note C_, 1
	speed 1
	volume_envelope 8, 0
	note A#, 3
	note B_, 10
	rest 13
	dec_octave
	volume_envelope 9, 0
	note A#, 3
	note B_, 10
	volume_envelope 2, 7
	note B_, 13
	inc_octave
	volume_envelope 9, 0
	note C_, 13
	volume_envelope 2, 7
	note C_, 13
	volume_envelope 9, 0
	speed 13
	note D_, 2
	volume_envelope 2, 7
	note D_, 1
	music_call Branch_fbb10
	rest 1
	octave 2
	note A_, 1
	rest 1
	note B_, 1
	note A_, 1
	inc_octave
	volume_envelope 9, 2
	note C_, 1
	volume_envelope 8, 0
	note E_, 2
	rest 1
	note C_, 1
	rest 1
	dec_octave
	cutoff 7
	note G_, 1
	cutoff 8
	note G_, 1
	inc_octave
	volume_envelope 9, 2
	note C_, 1
	dec_octave
	speed 1
	volume_envelope 8, 0
	note E_, 3
	note F_, 10
	tie
	speed 13
	note F_, 1
	rest 1
	inc_octave
	duty 2
	volume_envelope 7, 0
	speed 1
	note F_, 13
	note A_, 6
	volume_envelope 2, 7
	note A_, 7
	inc_octave
	volume_envelope 7, 0
	note C_, 6
	volume_envelope 2, 7
	note C_, 7
	volume_envelope 7, 0
	note E_, 6
	volume_envelope 2, 7
	note E_, 7
	dec_octave
	duty 1
	volume_envelope 9, 2
	note C_, 13
	inc_octave
	duty 2
	volume_envelope 7, 0
	note D#, 3
	note E_, 10
	tie
	speed 13
	note E_, 1
	note F_, 1
	speed 1
	note E_, 5
	volume_envelope 2, 7
	note E_, 8
	volume_envelope 7, 0
	note D_, 5
	volume_envelope 2, 7
	note D_, 8
	speed 13
	rest 1
	dec_octave
	dec_octave
	volume_envelope 9, 0
	duty 1
	note B_, 1
	inc_octave
	speed 1
	note C_, 6
	volume_envelope 2, 7
	note C_, 7
	volume_envelope 9, 0
	note D_, 6
	volume_envelope 2, 7
	note D_, 7
	music_call Branch_fbb10
	octave 3
	rest 1
	note F_, 1
	rest 1
	note G#, 1
	note F_, 1
	volume_envelope 9, 2
	note C_, 1
	inc_octave
	speed 1
	volume_envelope 8, 0
	note D_, 3
	note D#, 10
	tie
	speed 13
	note D#, 2
	dec_octave
	dec_octave
	volume_envelope 9, 2
	note G#, 1
	rest 1
	speed 1
	rest 6
	volume_envelope 9, 0
	note G#, 7
	inc_octave
	note C_, 6
	note D#, 7
	note G_, 6
	note A#, 7
	music_ret

Branch_fba68:
	octave 3
	volume_envelope 9, 2
	note C_, 1
	rest 1
	volume_envelope 9, 0
	note C_, 1
	note E_, 1
	volume_envelope 9, 2
	note C_, 1
	volume_envelope 9, 0
	note F_, 1
	volume_envelope 3, 7
	note F_, 1
	rest 1
	volume_envelope 9, 2
	note C_, 1
	volume_envelope 9, 0
	note G_, 1
	volume_envelope 3, 7
	note G_, 1
	volume_envelope 9, 0
	note F_, 1
	volume_envelope 9, 2
	note C_, 1
	volume_envelope 9, 0
	note E_, 1
	volume_envelope 3, 7
	note E_, 1
	rest 1
	volume_envelope 9, 2
	note C_, 1
	rest 1
	volume_envelope 9, 0
	note C_, 1
	note E_, 1
	volume_envelope 9, 2
	note C_, 1
	music_ret

Branch_fba9d:
	octave 4
	duty 2
	volume_envelope 7, 0
	speed 1
	note F#, 3
	note G_, 10
	dec_octave
	duty 1
	volume_envelope 9, 2
	note C_, 13
	inc_octave
	duty 2
	volume_envelope 7, 0
	note E_, 5
	volume_envelope 2, 7
	note E_, 8
	volume_envelope 7, 0
	note E_, 3
	note F_, 10
	note E_, 5
	volume_envelope 2, 7
	note E_, 8
	dec_octave
	speed 13
	duty 1
	volume_envelope 9, 2
	note C_, 1
	duty 2
	volume_envelope 7, 0
	note G_, 1
	music_ret

Branch_fbacb:
	octave 3
	cutoff 8
	Loop 3
	note A#, 1
	rest 1
	EndLoop
	inc_octave
	note C_, 3
	dec_octave
	volume_envelope 9, 2
	note C_, 1
	rest 1
	volume_envelope 8, 0
	note A_, 1
	inc_octave
	cutoff 4
	note C_, 1
	dec_octave
	cutoff 8
	volume_envelope 9, 2
	note C_, 1
	speed 1
	volume_envelope 8, 0
	note A#, 3
	note B_, 16
	rest 7
	note A#, 3
	note B_, 10
	dec_octave
	speed 13
	volume_envelope 9, 2
	note B_, 1
	inc_octave
	volume_envelope 8, 0
	note B_, 1
	rest 1
	note A_, 1
	dec_octave
	volume_envelope 9, 2
	note B_, 1
	inc_octave
	volume_envelope 8, 0
	note B_, 3
	volume_envelope 9, 2
	note D_, 1
	rest 1
	volume_envelope 8, 0
	note B_, 1
	inc_octave
	cutoff 4
	note D_, 1
	music_ret

Branch_fbb10:
	octave 3
	speed 13
	volume_envelope 8, 0
	note C_, 1
	cutoff 3
	note D_, 1
	volume_envelope 9, 2
	cutoff 8
	note C_, 1
	volume_envelope 8, 0
	note B_, 2
	cutoff 3
	note A_, 1
	volume_envelope 9, 3
	cutoff 8
	note C_, 1
	speed 1
	volume_envelope 8, 0
	note D#, 3
	note E_, 10
	tie
	speed 13
	note E_, 2
	volume_envelope 9, 2
	note D_, 1
	inc_octave
	duty 2
	volume_envelope 7, 0
	speed 1
	note G_, 5
	volume_envelope 2, 7
	note G_, 8
	volume_envelope 7, 0
	note F_, 5
	note G_, 4
	note F_, 4
	note E_, 5
	volume_envelope 2, 7
	note E_, 8
	dec_octave
	duty 1
	volume_envelope 9, 2
	note D_, 13
	inc_octave
	duty 2
	volume_envelope 7, 0
	note C_, 5
	volume_envelope 2, 7
	note C_, 8
	volume_envelope 7, 0
	note D_, 13
	note E_, 5
	volume_envelope 2, 7
	note E_, 8
	volume_envelope 7, 0
	note C_, 5
	volume_envelope 2, 7
	note C_, 8
	dec_octave
	speed 13
	volume_envelope 7, 0
	note E_, 4
	inc_octave
	inc_octave
	speed 1
	note C_, 5
	volume_envelope 2, 7
	note C_, 8
	dec_octave
	volume_envelope 7, 0
	note B_, 13
	inc_octave
	note C_, 5
	volume_envelope 2, 7
	note C_, 8
	dec_octave
	volume_envelope 7, 0
	note B_, 5
	volume_envelope 2, 7
	note B_, 8
	volume_envelope 7, 0
	note G_, 5
	volume_envelope 2, 7
	note G_, 8
	dec_octave
	dec_octave
	duty 1
	volume_envelope 8, 0
	note B_, 3
	inc_octave
	note C_, 10
	speed 13
	cutoff 3
	note D_, 1
	note E_, 1
	cutoff 8
	note F_, 2
	music_ret


Music_Credits_Ch3:
	speed 1
	stereo_panning TRUE, TRUE
	volume_envelope 2, 0
	wave 1
	echo 96
	cutoff 8
	octave 1
	Loop 12
	note G_, 6
	rest 7
	EndLoop
	note G_, 6
	note A_, 7
	note B_, 6
	inc_octave
	note C_, 7
	note D_, 6
	note E_, 7
	note F_, 6
	note G_, 7
	music_call Branch_fbc46
	music_call Branch_fbd47
	octave 1
	Loop 2
	Loop 2
	note B_, 6
	rest 7
	EndLoop
	inc_octave
	cutoff 4
	note G_, 13
	dec_octave
	cutoff 8
	note B_, 6
	rest 7
	EndLoop
	Loop 2
	Loop 2
	note A_, 6
	rest 7
	EndLoop
	inc_octave
	cutoff 4
	note F_, 13
	dec_octave
	cutoff 8
	note A_, 6
	rest 7
	EndLoop
	Loop 2
	Loop 2
	note G#, 6
	rest 7
	EndLoop
	inc_octave
	cutoff 4
	note F_, 13
	dec_octave
	cutoff 8
	note G#, 6
	rest 7
	EndLoop
	music_call Branch_fbe10
	music_call Branch_fbd6b
	music_call Branch_fbdb7
	music_call Branch_fbe3d
	octave 1
	note B_, 13
	music_call Branch_fbc46
	speed 1
	octave 1
	Loop 2
	note G#, 6
	rest 7
	note G#, 6
	rest 7
	inc_octave
	inc_octave
	cutoff 4
	note D#, 13
	dec_octave
	dec_octave
	cutoff 8
	note G#, 6
	rest 7
	EndLoop
	inc_octave
	Loop 2
	note C#, 6
	rest 7
	note C#, 6
	rest 7
	inc_octave
	cutoff 4
	note F_, 13
	dec_octave
	cutoff 8
	note C#, 6
	rest 7
	EndLoop
	note C_, 6
	rest 7
	note C_, 6
	rest 7
	inc_octave
	cutoff 4
	note C_, 13
	dec_octave
	cutoff 8
	note C_, 6
	rest 7
	note C_, 6
	rest 7
	note C_, 6
	rest 7
	dec_octave
	note G_, 6
	rest 7
	note G_, 6
	rest 7
	speed 13
	note C_, 8
	tie
	note C_, 1
	rest 2
	music_end

Branch_fbc46:
	speed 1
	octave 2
	music_call Branch_fbd47
	music_call Branch_fbe23
	music_call Branch_fbd47
	Loop 2
	note C_, 6
	rest 7
	EndLoop
	cutoff 4
	note A_, 13
	cutoff 8
	note C_, 6
	rest 7
	Loop 2
	note C_, 6
	rest 7
	EndLoop
	inc_octave
	cutoff 4
	note C_, 13
	dec_octave
	cutoff 8
	note C_, 6
	rest 7
	music_call Branch_fbd47
	music_call Branch_fbe23
	octave 2
	Loop 2
	note C_, 6
	rest 7
	EndLoop
	cutoff 4
	note G_, 13
	cutoff 8
	note C_, 6
	rest 7
	Loop 2
	note C_, 6
	rest 7
	EndLoop
	cutoff 4
	note G_, 13
	dec_octave
	cutoff 8
	note G_, 13
	tie
	speed 13
	note G_, 7
	rest 1
	speed 1
	music_call Branch_fbd47
	music_call Branch_fbd58
	music_call Branch_fbd6b
	music_call Branch_fbd7e
	music_call Branch_fbd91
	music_call Branch_fbda4
	music_call Branch_fbdb7
	music_call Branch_fbdca
	music_call Branch_fbd47
	music_call Branch_fbd58
	music_call Branch_fbd6b
	music_call Branch_fbd7e
	music_call Branch_fbddd
	music_call Branch_fbdf0
	music_call Branch_fbd47
	music_call Branch_fbe03
	music_call Branch_fbd91
	music_call Branch_fbdca
	music_call Branch_fbe10
	music_call Branch_fbd6b
	music_call Branch_fbdb7
	music_call Branch_fbdca
	music_call Branch_fbd47
	music_call Branch_fbe03
	music_call Branch_fbd91
	music_call Branch_fbdca
	music_call Branch_fbe10
	music_call Branch_fbd6b
	music_call Branch_fbdb7
	music_call Branch_fbdf0
	music_call Branch_fbdca
	octave 1
	note G_, 6
	rest 7
	note G_, 13
	inc_octave
	note G_, 6
	rest 7
	dec_octave
	note A_, 6
	rest 7
	note A_, 6
	rest 7
	speed 13
	note B_, 2
	note G_, 1
	speed 1
	music_call Branch_fbd47
	music_call Branch_fbd58
	music_call Branch_fbd6b
	music_call Branch_fbd7e
	music_call Branch_fbd91
	music_call Branch_fbda4
	music_call Branch_fbdb7
	music_call Branch_fbe3d
	octave 1
	note B_, 6
	rest 7
	music_call Branch_fbd47
	music_call Branch_fbd58
	music_call Branch_fbd6b
	music_call Branch_fbd7e
	music_call Branch_fbddd
	octave 1
	Loop 2
	note A#, 6
	rest 7
	EndLoop
	inc_octave
	cutoff 4
	note F_, 13
	dec_octave
	cutoff 8
	note A#, 6
	rest 7
	note A#, 6
	inc_octave
	note F_, 7
	note G#, 6
	inc_octave
	note C_, 7
	note D#, 6
	note G_, 7
	dec_octave
	dec_octave
	note A#, 6
	rest 7
	music_ret

Branch_fbd47:
	octave 2
	Loop 2
	Loop 2
	note C_, 6
	rest 7
	EndLoop
	cutoff 4
	note G_, 13
	cutoff 8
	note C_, 6
	rest 7
	EndLoop
	music_ret

Branch_fbd58:
	octave 1
	Loop 2
	Loop 2
	note B_, 6
	rest 7
	EndLoop
	inc_octave
	cutoff 4
	note G_, 13
	dec_octave
	cutoff 8
	note B_, 6
	rest 7
	EndLoop
	music_ret

Branch_fbd6b:
	octave 1
	Loop 2
	Loop 2
	note A_, 6
	rest 7
	EndLoop
	inc_octave
	cutoff 4
	note G_, 13
	dec_octave
	cutoff 8
	note A_, 6
	rest 7
	EndLoop
	music_ret

Branch_fbd7e:
	octave 1
	Loop 2
	Loop 2
	note G_, 6
	rest 7
	EndLoop
	inc_octave
	cutoff 4
	note G_, 13
	dec_octave
	cutoff 8
	note G_, 6
	rest 7
	EndLoop
	music_ret

Branch_fbd91:
	octave 1
	Loop 2
	Loop 2
	note F_, 6
	rest 7
	EndLoop
	inc_octave
	cutoff 4
	note F_, 13
	dec_octave
	cutoff 8
	note F_, 6
	rest 7
	EndLoop
	music_ret

Branch_fbda4:
	octave 1
	Loop 2
	Loop 2
	note E_, 6
	rest 7
	EndLoop
	inc_octave
	cutoff 4
	note E_, 13
	dec_octave
	cutoff 8
	note E_, 6
	rest 7
	EndLoop
	music_ret

Branch_fbdb7:
	octave 1
	Loop 2
	Loop 2
	note D_, 6
	rest 7
	EndLoop
	inc_octave
	cutoff 4
	note F_, 13
	dec_octave
	cutoff 8
	note D_, 6
	rest 7
	EndLoop
	music_ret

Branch_fbdca:
	octave 1
	Loop 2
	Loop 2
	note G_, 6
	rest 7
	EndLoop
	inc_octave
	cutoff 4
	note F_, 13
	dec_octave
	cutoff 8
	note G_, 6
	rest 7
	EndLoop
	music_ret

Branch_fbddd:
	octave 1
	Loop 2
	Loop 2
	note F_, 6
	rest 7
	EndLoop
	inc_octave
	cutoff 4
	note G#, 13
	dec_octave
	cutoff 8
	note F_, 6
	rest 7
	EndLoop
	music_ret

Branch_fbdf0:
	octave 1
	Loop 2
	Loop 2
	note A#, 6
	rest 7
	EndLoop
	inc_octave
	cutoff 4
	note F_, 13
	dec_octave
	cutoff 8
	note A#, 6
	rest 7
	EndLoop
	music_ret

Branch_fbe03:
	octave 2
	note C_, 6
	rest 7
	dec_octave
	note C_, 13
	rest 13
	note D_, 13
	rest 13
	note E_, 13
	rest 13
	note C_, 6
	rest 7
	music_ret

Branch_fbe10:
	octave 1
	Loop 2
	Loop 2
	note E_, 6
	rest 7
	EndLoop
	inc_octave
	cutoff 4
	note G_, 13
	dec_octave
	cutoff 8
	note E_, 6
	rest 7
	EndLoop
	music_ret

Branch_fbe23:
	octave 2
	Loop 2
	note C_, 6
	rest 7
	EndLoop
	cutoff 4
	note A_, 13
	cutoff 8
	note C_, 6
	rest 7
	Loop 2
	note C_, 6
	rest 7
	EndLoop
	cutoff 4
	note F_, 13
	cutoff 8
	note C_, 6
	rest 7
	music_ret

Branch_fbe3d:
	octave 1
	Loop 2
	note G_, 6
	rest 7
	EndLoop
	inc_octave
	cutoff 4
	note F_, 13
	dec_octave
	cutoff 8
	note G_, 6
	rest 7
	note G_, 6
	rest 7
	note G_, 13
	note A_, 13
	music_ret


Music_Credits_Ch4:
	speed 1
	octave 1
	Loop 8
	snare2 13
	EndLoop
	Loop 4
	snare1 13
	EndLoop
	Loop 4
	snare1 6
	snare1 7
	EndLoop
	music_call Branch_fbe86
	Loop 7
	music_call Branch_fbed1
	EndLoop
	bass 13
	snare3 13
	snare1 13
	snare3 6
	snare2 4
	snare2 3
	Loop 4
	snare1 6
	snare1 7
	EndLoop
	music_call Branch_fbe86
	Loop 2
	music_call Branch_fbed1
	EndLoop
	music_call Branch_fbeea
	speed 13
	snare5 8
	rest 3
	music_end

Branch_fbe86:
	Loop 6
	music_call Branch_fbed1
	EndLoop
	bass 13
	snare3 13
	snare1 13
	snare3 6
	snare3 7
	bass 13
	snare3 13
	snare1 13
	speed 13
	snare5 7
	snare1 2
	speed 1
	Loop 15
	music_call Branch_fbed1
	EndLoop
	music_call Branch_fbedb
	Loop 7
	music_call Branch_fbed1
	EndLoop
	music_call Branch_fbedb
	Loop 7
	music_call Branch_fbed1
	EndLoop
	music_call Branch_fbeea
	Loop 7
	music_call Branch_fbed1
	EndLoop
	bass 13
	snare3 13
	snare1 13
	snare3 6
	snare3 7
	bass 13
	snare3 6
	snare2 4
	snare2 3
	snare1 6
	snare1 7
	snare1 13
	Loop 5
	music_call Branch_fbed1
	EndLoop
	music_call Branch_fbeea
	music_ret

Branch_fbed1:
	bass 13
	snare3 13
	snare1 13
	snare3 6
	snare3 7
	bass 13
	snare3 13
	snare1 13
	snare4 13
	music_ret

Branch_fbedb:
	bass 13
	snare3 6
	snare2 7
	snare1 6
	snare1 7
	Loop 2
	snare1 6
	snare2 4
	snare2 3
	snare1 6
	snare1 7
	EndLoop
	snare1 13
	music_ret

Branch_fbeea:
	bass 13
	snare3 13
	snare1 13
	snare3 6
	snare2 4
	snare2 3
	Loop 3
	snare1 6
	snare1 7
	EndLoop
	snare1 13
	music_ret
