Music_DuelTheme3_Ch1:
	speed 11
	stereo_panning TRUE, TRUE
	vibrato_type 8
	vibrato_delay 20
	cutoff 8
	MainLoop
	octave 2
	duty 0
	Loop 4
	Loop 4
	volume_envelope 9, 2
	note F#, 2
	rest 1
	EndLoop
	volume_envelope 9, 0
	note E_, 2
	volume_envelope 9, 5
	note F_, 2
	EndLoop
	Loop 4
	music_call Branch_f67b2
	EndLoop
	duty 1
	volume_envelope 10, 0
	Loop 2
	octave 3
	note C#, 1
	note F#, 1
	speed 1
	note G#, 5
	volume_envelope 3, 7
	note G#, 6
	music_call Branch_f65a7
	octave 3
	note D_, 1
	note F#, 1
	speed 1
	note B_, 5
	volume_envelope 3, 7
	note B_, 6
	music_call Branch_f65a7
	EndLoop
	duty 0
	volume_envelope 10, 3
	dec_octave
	rest 2
	speed 1
	note E_, 5
	volume_envelope 2, 7
	note E_, 6
	music_call Branch_f65cf
	note F#, 5
	volume_envelope 2, 7
	note F#, 6
	speed 11
	rest 1
	dec_octave
	duty 0
	volume_envelope 10, 3
	speed 1
	note E_, 5
	volume_envelope 2, 7
	note E_, 6
	music_call Branch_f65cf
	speed 11
	duty 1
	volume_envelope 10, 0
	Loop 2
	octave 3
	note C#, 1
	note F#, 1
	speed 1
	note G#, 5
	volume_envelope 3, 7
	note G#, 6
	music_call Branch_f65a7
	octave 3
	note D_, 1
	note F#, 1
	speed 1
	note B_, 5
	volume_envelope 3, 7
	note B_, 6
	volume_envelope 10, 0
	music_call Branch_f65a7
	EndLoop
	vibrato_delay 10
	duty 0
	Loop 2
	octave 2
	rest 4
	volume_envelope 9, 0
	note F#, 2
	volume_envelope 2, 7
	note F#, 2
	rest 2
	volume_envelope 9, 0
	note E_, 2
	volume_envelope 2, 7
	note E_, 4
	volume_envelope 9, 0
	note D#, 2
	volume_envelope 2, 7
	note D#, 4
	volume_envelope 9, 0
	note D_, 2
	note C#, 2
	EndLoop
	vibrato_delay 20
	duty 2
	cutoff 6
	Loop 4
	music_call Branch_f661d
	EndLoop
	octave 4
	volume_envelope 7, 0
	note C#, 5
	volume_envelope 2, 7
	note C#, 6
	volume_envelope 7, 0
	note F#, 5
	volume_envelope 2, 7
	note F#, 6
	Loop 3
	music_call Branch_f661d
	EndLoop
	octave 4
	volume_envelope 7, 0
	note C#, 5
	volume_envelope 2, 7
	note C#, 6
	volume_envelope 7, 0
	note F#, 5
	volume_envelope 2, 7
	note F#, 6
	inc_octave
	volume_envelope 7, 0
	note C#, 5
	volume_envelope 2, 7
	note C#, 6
	dec_octave
	volume_envelope 7, 0
	note F#, 5
	volume_envelope 2, 7
	note F#, 6
	dec_octave
	speed 11
	duty 1
	volume_envelope 9, 0
	cutoff 8
	note D_, 2
	note C#, 2
	dec_octave
	note F#, 3
	inc_octave
	speed 1
	note D_, 3
	note D#, 2
	note E_, 3
	note F_, 3
	speed 11
	note F#, 4
	dec_octave
	note G#, 3
	inc_octave
	speed 1
	note E_, 3
	note F_, 2
	note F#, 3
	note G_, 3
	speed 11
	note G#, 4
	duty 0
	octave 2
	Loop 2
	Loop 4
	volume_envelope 9, 0
	note F#, 1
	volume_envelope 3, 7
	note F#, 1
	rest 1
	EndLoop
	volume_envelope 9, 0
	note F#, 1
	volume_envelope 3, 7
	note F#, 1
	volume_envelope 9, 0
	note F#, 1
	volume_envelope 3, 7
	note F#, 1
	Loop 4
	volume_envelope 9, 0
	note G_, 1
	volume_envelope 3, 7
	note G_, 1
	rest 1
	EndLoop
	volume_envelope 9, 0
	note A_, 1
	volume_envelope 3, 7
	note A_, 1
	volume_envelope 9, 0
	note G_, 1
	volume_envelope 3, 7
	note G_, 1
	EndLoop
	duty 1
	volume_envelope 10, 0
	octave 3
	note C#, 1
	note F#, 1
	speed 1
	note G#, 5
	volume_envelope 3, 7
	note G#, 6
	music_call Branch_f65a7
	octave 3
	note C#, 1
	note F#, 1
	speed 1
	note G#, 5
	volume_envelope 3, 7
	note G#, 6
	inc_octave
	volume_envelope 10, 0
	speed 11
	note C#, 9
	volume_envelope 3, 7
	note C#, 2
	dec_octave
	volume_envelope 10, 0
	note B_, 1
	inc_octave
	note C#, 1
	note F#, 1
	note C#, 1
	dec_octave
	speed 1
	note B_, 5
	volume_envelope 3, 7
	note B_, 6
	speed 11
	volume_envelope 10, 0
	note F#, 9
	volume_envelope 3, 7
	note F#, 4
	volume_envelope 10, 0
	note G#, 1
	note A_, 1
	speed 1
	note G#, 5
	volume_envelope 3, 7
	note G#, 6
	volume_envelope 10, 0
	speed 11
	note B_, 8
	volume_envelope 3, 7
	note B_, 1
	volume_envelope 10, 0
	note A_, 2
	note B_, 1
	tie
	speed 1
	note B_, 5
	volume_envelope 3, 7
	note B_, 6
	speed 11
	inc_octave
	volume_envelope 10, 0
	note C#, 1
	note D_, 1
	speed 1
	note C#, 5
	volume_envelope 3, 7
	note C#, 6
	volume_envelope 10, 0
	speed 11
	note E_, 10
	volume_envelope 3, 7
	note E_, 1
	volume_envelope 10, 0
	note D_, 1
	speed 1
	note C#, 8
	volume_envelope 3, 7
	note C#, 3
	dec_octave
	volume_envelope 10, 0
	speed 11
	note B_, 1
	inc_octave
	note C#, 1
	dec_octave
	speed 1
	note B_, 5
	volume_envelope 3, 7
	note B_, 6
	speed 11
	volume_envelope 10, 0
	note E_, 10
	volume_envelope 3, 7
	note E_, 3
	volume_envelope 1, -7
	note A_, 3
	volume_envelope 6, 0
	note A_, 5
	inc_octave
	volume_envelope 3, -7
	note E_, 3
	volume_envelope 7, -7
	note E_, 3
	volume_envelope 10, 0
	note E_, 2
	duty 1
	Loop 4
	Loop 4
	volume_envelope 9, 0
	note G#, 1
	volume_envelope 3, 7
	note G#, 1
	rest 1
	EndLoop
	volume_envelope 9, 0
	note G#, 1
	volume_envelope 3, 7
	note G#, 1
	volume_envelope 9, 0
	note G#, 1
	volume_envelope 3, 7
	note G#, 1
	Loop 4
	volume_envelope 9, 0
	note A_, 1
	volume_envelope 3, 7
	note A_, 1
	rest 1
	EndLoop
	volume_envelope 9, 0
	note A_, 1
	volume_envelope 3, 7
	note A_, 1
	volume_envelope 9, 0
	note A_, 1
	volume_envelope 3, 7
	note A_, 1
	EndLoop
	EndMainLoop

Branch_f65a7:
	speed 11
	octave 4
	volume_envelope 10, 0
	note C#, 5
	tie
	note C#, 4
	volume_envelope 3, 7
	note C#, 2
	dec_octave
	volume_envelope 10, 0
	note B_, 1
	inc_octave
	note C#, 1
	note F#, 1
	note C#, 1
	dec_octave
	speed 1
	note B_, 5
	volume_envelope 3, 7
	note B_, 6
	speed 11
	volume_envelope 10, 0
	inc_octave
	note C#, 5
	tie
	note C#, 4
	volume_envelope 3, 7
	note C#, 4
	volume_envelope 10, 0
	music_ret

Branch_f65cf:
	octave 3
	Loop 3
	speed 11
	rest 2
	speed 1
	volume_envelope 10, 3
	note E_, 5
	volume_envelope 2, 7
	note E_, 6
	EndLoop
	duty 2
	volume_envelope 8, 0
	note D_, 5
	note G_, 6
	note B_, 5
	inc_octave
	note D_, 6
	dec_octave
	note G_, 5
	note B_, 6
	inc_octave
	note D_, 5
	note G_, 6
	note F#, 5
	volume_envelope 2, 7
	note F#, 6
	duty 0
	volume_envelope 10, 3
	speed 11
	rest 1
	dec_octave
	speed 1
	note E_, 5
	volume_envelope 2, 7
	note E_, 6
	Loop 3
	speed 11
	rest 2
	speed 1
	volume_envelope 10, 3
	note E_, 5
	volume_envelope 2, 7
	note E_, 6
	EndLoop
	dec_octave
	duty 2
	volume_envelope 8, 0
	note B_, 5
	inc_octave
	note E_, 6
	note G_, 5
	note B_, 6
	note E_, 5
	note G_, 6
	note B_, 5
	inc_octave
	note E_, 6
	music_ret

Branch_f661d:
	octave 4
	speed 1
	volume_envelope 7, 0
	note C#, 5
	volume_envelope 2, 7
	note C#, 6
	volume_envelope 7, 0
	note F#, 5
	volume_envelope 2, 7
	note F#, 6
	inc_octave
	volume_envelope 7, 0
	note C#, 5
	volume_envelope 2, 7
	note C#, 6
	dec_octave
	volume_envelope 7, 0
	note F#, 5
	volume_envelope 2, 7
	note F#, 6
	inc_octave
	volume_envelope 7, 0
	note C#, 5
	volume_envelope 2, 7
	note C#, 6
	dec_octave
	volume_envelope 7, 0
	note F#, 5
	volume_envelope 2, 7
	note F#, 6
	music_ret


Music_DuelTheme3_Ch2:
	speed 11
	stereo_panning TRUE, TRUE
	vibrato_type 8
	vibrato_delay 20
	cutoff 8
	MainLoop
	octave 2
	duty 0
	frequency_offset 3
	Loop 4
	Loop 4
	volume_envelope 8, 2
	note F#, 2
	rest 1
	EndLoop
	volume_envelope 8, 0
	note E_, 2
	volume_envelope 8, 5
	note F_, 2
	EndLoop
	frequency_offset 0
	octave 3
	Loop 4
	rest 6
	volume_envelope 10, 3
	note E_, 1
	volume_envelope 2, 7
	note E_, 1
	rest 8
	EndLoop
	Loop 2
	Loop 2
	music_call Branch_f67b2
	EndLoop
	Loop 2
	music_call Branch_f680a
	EndLoop
	EndLoop
	octave 2
	volume_envelope 10, 3
	speed 11
	rest 1
	speed 1
	note C#, 5
	volume_envelope 2, 7
	note C#, 6
	volume_envelope 10, 3
	note A_, 5
	volume_envelope 2, 7
	note A_, 6
	music_call Branch_f6866
	octave 4
	note C#, 5
	volume_envelope 2, 7
	note C#, 6
	dec_octave
	dec_octave
	duty 0
	volume_envelope 10, 3
	note C#, 5
	volume_envelope 2, 7
	note C#, 6
	volume_envelope 10, 3
	note A_, 5
	volume_envelope 2, 7
	note A_, 6
	music_call Branch_f6866
	duty 0
	volume_envelope 9, 0
	Loop 2
	Loop 2
	music_call Branch_f67b2
	EndLoop
	Loop 2
	music_call Branch_f680a
	EndLoop
	EndLoop
	vibrato_delay 10
	Loop 4
	volume_envelope 10, 3
	cutoff 6
	note F#, 1
	note F#, 1
	cutoff 8
	speed 1
	note F#, 5
	volume_envelope 2, 7
	note F#, 6
	volume_envelope 10, 3
	cutoff 6
	speed 11
	note F#, 1
	inc_octave
	volume_envelope 9, 0
	cutoff 8
	note C#, 2
	dec_octave
	volume_envelope 10, 3
	cutoff 6
	note F#, 1
	note F#, 1
	speed 1
	cutoff 8
	note F#, 5
	volume_envelope 2, 7
	note F#, 6
	volume_envelope 10, 3
	cutoff 6
	speed 11
	note F#, 1
	volume_envelope 9, 0
	cutoff 8
	note B_, 2
	volume_envelope 10, 3
	cutoff 6
	note F#, 1
	note F#, 1
	cutoff 8
	speed 1
	note F#, 5
	volume_envelope 2, 7
	note F#, 6
	volume_envelope 10, 3
	cutoff 6
	speed 11
	note F#, 1
	volume_envelope 9, 0
	cutoff 8
	note B_, 2
	volume_envelope 10, 3
	cutoff 6
	note F#, 1
	note F#, 1
	speed 1
	cutoff 8
	note F#, 5
	volume_envelope 2, 7
	note F#, 6
	volume_envelope 10, 3
	cutoff 6
	speed 11
	note F#, 1
	cutoff 8
	volume_envelope 9, 0
	note A_, 2
	note G#, 2
	EndLoop
	vibrato_delay 20
	note D_, 3
	speed 1
	note A#, 3
	note B_, 2
	inc_octave
	note C_, 3
	note C#, 3
	speed 11
	note D_, 4
	dec_octave
	note E_, 3
	inc_octave
	speed 1
	note C_, 3
	note C#, 2
	note D_, 3
	note D#, 3
	speed 11
	note E_, 4
	octave 3
	Loop 6
	Loop 4
	volume_envelope 9, 0
	note C#, 1
	volume_envelope 3, 7
	note C#, 1
	rest 1
	EndLoop
	volume_envelope 9, 0
	note C#, 1
	volume_envelope 3, 7
	note C#, 1
	volume_envelope 9, 0
	note C#, 1
	volume_envelope 3, 7
	note C#, 1
	Loop 4
	volume_envelope 9, 0
	note D_, 1
	volume_envelope 3, 7
	note D_, 1
	rest 1
	EndLoop
	volume_envelope 9, 0
	note E_, 1
	volume_envelope 3, 7
	note E_, 1
	volume_envelope 9, 0
	note D_, 1
	volume_envelope 3, 7
	note D_, 1
	EndLoop
	duty 1
	inc_octave
	Loop 4
	Loop 4
	volume_envelope 8, 0
	note E_, 1
	volume_envelope 3, 7
	note E_, 1
	rest 1
	EndLoop
	volume_envelope 8, 0
	note E_, 1
	volume_envelope 3, 7
	note E_, 1
	volume_envelope 8, 0
	note E_, 1
	volume_envelope 3, 7
	note E_, 1
	Loop 4
	volume_envelope 8, 0
	note D_, 1
	volume_envelope 3, 7
	note D_, 1
	rest 1
	EndLoop
	volume_envelope 8, 0
	note D_, 1
	volume_envelope 3, 7
	note D_, 1
	volume_envelope 8, 0
	note D_, 1
	volume_envelope 3, 7
	note D_, 1
	EndLoop
	EndMainLoop

Branch_f67b2:
	octave 2
	volume_envelope 10, 3
	speed 11
	rest 1
	speed 1
	note F#, 5
	volume_envelope 2, 7
	note F#, 6
	volume_envelope 10, 3
	note A_, 5
	volume_envelope 2, 7
	note A_, 6
	volume_envelope 10, 3
	note F#, 5
	volume_envelope 2, 7
	note F#, 6
	volume_envelope 10, 3
	speed 11
	rest 1
	speed 1
	note F#, 5
	volume_envelope 3, 7
	note F#, 6
	inc_octave
	volume_envelope 10, 3
	speed 11
	note C_, 1
	dec_octave
	speed 1
	note B_, 5
	volume_envelope 2, 7
	note B_, 6
	speed 11
	rest 1
	speed 1
	volume_envelope 10, 3
	note A_, 5
	volume_envelope 2, 7
	note A_, 6
	speed 11
	rest 1
	speed 1
	volume_envelope 10, 3
	note B_, 5
	volume_envelope 2, 7
	note B_, 6
	volume_envelope 10, 3
	note A_, 4
	note B_, 4
	note A_, 3
	note F#, 5
	volume_envelope 2, 7
	note F#, 6
	speed 11
	volume_envelope 9, 0
	note E_, 1
	volume_envelope 10, 3
	note F_, 1
	music_ret

Branch_f680a:
	octave 2
	volume_envelope 10, 3
	speed 11
	rest 1
	speed 1
	note G_, 5
	volume_envelope 2, 7
	note G_, 6
	volume_envelope 10, 3
	note B_, 5
	volume_envelope 2, 7
	note B_, 6
	volume_envelope 10, 3
	note G_, 5
	volume_envelope 2, 7
	note G_, 6
	speed 11
	rest 1
	speed 1
	volume_envelope 10, 3
	note G_, 5
	volume_envelope 2, 7
	note G_, 6
	inc_octave
	volume_envelope 10, 3
	speed 11
	note C#, 1
	speed 1
	note C_, 5
	volume_envelope 2, 7
	note C_, 6
	volume_envelope 10, 3
	speed 11
	rest 1
	dec_octave
	speed 1
	note B_, 5
	volume_envelope 2, 7
	note B_, 6
	speed 11
	rest 1
	inc_octave
	speed 1
	volume_envelope 10, 3
	note C#, 5
	volume_envelope 2, 7
	note C#, 6
	dec_octave
	volume_envelope 10, 3
	note B_, 4
	inc_octave
	note C#, 4
	dec_octave
	note B_, 3
	note G_, 5
	volume_envelope 2, 7
	note G_, 6
	speed 11
	volume_envelope 9, 0
	note B_, 1
	volume_envelope 10, 3
	note G_, 1
	music_ret

Branch_f6866:
	octave 2
	Loop 3
	speed 11
	rest 1
	speed 1
	volume_envelope 10, 3
	note C#, 5
	volume_envelope 2, 7
	note C#, 6
	volume_envelope 10, 3
	note A_, 5
	volume_envelope 2, 7
	note A_, 6
	EndLoop
	duty 2
	volume_envelope 7, 0
	note B_, 5
	inc_octave
	note D_, 6
	note G_, 5
	note B_, 6
	note D_, 5
	note G_, 6
	note B_, 5
	inc_octave
	note D_, 6
	note C#, 5
	volume_envelope 2, 7
	note C#, 6
	dec_octave
	dec_octave
	duty 0
	volume_envelope 10, 3
	note C#, 5
	volume_envelope 2, 7
	note C#, 6
	volume_envelope 10, 3
	note A_, 5
	volume_envelope 2, 7
	note A_, 6
	Loop 3
	speed 11
	rest 1
	speed 1
	volume_envelope 10, 3
	note C#, 5
	volume_envelope 2, 7
	note C#, 6
	volume_envelope 10, 3
	note A_, 5
	volume_envelope 2, 7
	note A_, 6
	EndLoop
	duty 2
	volume_envelope 7, 0
	note G_, 5
	note B_, 6
	inc_octave
	note E_, 5
	note G_, 6
	dec_octave
	note B_, 5
	inc_octave
	note E_, 6
	note G_, 5
	note B_, 6
	inc_octave
	music_ret


Music_DuelTheme3_Ch3:
	speed 11
	stereo_panning TRUE, TRUE
	volume_envelope 2, 0
	wave 1
	echo 96
	vibrato_type 8
	vibrato_delay 0
	cutoff 8
	MainLoop
	octave 1
	Loop 4
	Loop 4
	cutoff 4
	note F#, 2
	rest 1
	EndLoop
	cutoff 8
	note E_, 2
	note F_, 2
	EndLoop
	Loop 4
	music_call Branch_f6973
	EndLoop
	Loop 2
	music_call Branch_f6992
	EndLoop
	octave 1
	Loop 2
	Loop 4
	note F#, 1
	rest 2
	EndLoop
	note G_, 2
	note G_, 2
	Loop 4
	note F#, 1
	rest 2
	EndLoop
	note E_, 2
	note F_, 2
	EndLoop
	Loop 2
	music_call Branch_f6992
	EndLoop
	vibrato_delay 10
	octave 1
	Loop 3
	music_call Branch_f69f0
	speed 11
	octave 3
	cutoff 8
	note D_, 2
	note C#, 2
	dec_octave
	dec_octave
	EndLoop
	music_call Branch_f69f0
	octave 1
	cutoff 8
	note F#, 2
	note E_, 2
	vibrato_delay 0
	note D_, 3
	speed 1
	note A#, 3
	note B_, 2
	inc_octave
	note C_, 3
	note C#, 3
	speed 11
	note D_, 4
	dec_octave
	note E_, 3
	inc_octave
	speed 1
	note C_, 3
	note C#, 2
	note D_, 3
	note D#, 3
	speed 11
	note E_, 4
	dec_octave
	Loop 6
	Loop 4
	note F#, 1
	rest 2
	EndLoop
	note F#, 2
	note F_, 2
	Loop 4
	note E_, 1
	rest 2
	EndLoop
	note E_, 2
	note F_, 2
	EndLoop
	cutoff 7
	Loop 4
	inc_octave
	Loop 4
	note F#, 1
	dec_octave
	note F#, 1
	note F#, 1
	inc_octave
	EndLoop
	note F#, 1
	dec_octave
	note F#, 1
	inc_octave
	note F#, 1
	dec_octave
	note F#, 1
	inc_octave
	Loop 4
	note E_, 1
	dec_octave
	note E_, 1
	note E_, 1
	inc_octave
	EndLoop
	note E_, 1
	dec_octave
	note E_, 1
	inc_octave
	note E_, 1
	dec_octave
	note E_, 1
	EndLoop
	cutoff 8
	EndMainLoop

Branch_f6973:
	octave 1
	note F#, 1
	rest 1
	inc_octave
	inc_octave
	cutoff 4
	note E_, 1
	dec_octave
	dec_octave
	cutoff 8
	note F#, 1
	rest 2
	note F#, 1
	rest 1
	rest 1
	note F#, 1
	rest 1
	inc_octave
	inc_octave
	cutoff 4
	note E_, 1
	dec_octave
	dec_octave
	cutoff 8
	note E_, 2
	note F_, 2
	music_ret

Branch_f6992:
	octave 1
	music_call Branch_f6973
	note F#, 1
	rest 1
	inc_octave
	inc_octave
	cutoff 4
	note E_, 1
	dec_octave
	dec_octave
	cutoff 8
	note F#, 1
	rest 2
	note F#, 1
	rest 1
	rest 1
	note F#, 1
	rest 1
	inc_octave
	inc_octave
	cutoff 4
	note E_, 1
	dec_octave
	dec_octave
	cutoff 8
	note F#, 1
	rest 1
	note F#, 2
	note G_, 1
	rest 1
	inc_octave
	inc_octave
	cutoff 4
	note F#, 1
	dec_octave
	dec_octave
	cutoff 8
	note G_, 1
	rest 2
	note G_, 1
	rest 1
	rest 1
	note G_, 1
	rest 1
	inc_octave
	inc_octave
	cutoff 4
	note F#, 1
	dec_octave
	dec_octave
	cutoff 8
	note F_, 2
	note F#, 2
	note G_, 1
	rest 1
	inc_octave
	inc_octave
	cutoff 4
	note F#, 1
	dec_octave
	dec_octave
	cutoff 8
	note G_, 1
	rest 2
	note G_, 1
	rest 1
	rest 1
	note G_, 1
	rest 1
	inc_octave
	inc_octave
	cutoff 4
	note F#, 1
	dec_octave
	dec_octave
	cutoff 8
	note G_, 1
	rest 1
	note F_, 2
	music_ret

Branch_f69f0:
	octave 1
	cutoff 6
	note F#, 1
	inc_octave
	note C#, 1
	inc_octave
	cutoff 4
	note C#, 1
	dec_octave
	dec_octave
	cutoff 6
	note F#, 1
	inc_octave
	inc_octave
	cutoff 8
	note F#, 2
	dec_octave
	dec_octave
	cutoff 6
	note F#, 1
	inc_octave
	note C#, 1
	inc_octave
	cutoff 4
	note C#, 1
	dec_octave
	dec_octave
	cutoff 6
	note F#, 1
	inc_octave
	inc_octave
	cutoff 8
	note E_, 2
	dec_octave
	dec_octave
	cutoff 6
	note F#, 1
	inc_octave
	note C#, 1
	inc_octave
	cutoff 4
	note C#, 1
	dec_octave
	dec_octave
	cutoff 6
	note F#, 1
	inc_octave
	inc_octave
	cutoff 8
	note D#, 2
	dec_octave
	dec_octave
	cutoff 6
	note F#, 1
	inc_octave
	note C#, 1
	inc_octave
	cutoff 4
	note C#, 1
	dec_octave
	dec_octave
	cutoff 6
	note F#, 1
	music_ret


Music_DuelTheme3_Ch4:
	speed 11
	MainLoop
	Loop 2
	Loop 4
	snare4 1
	snare3 1
	snare3 1
	EndLoop
	snare4 1
	snare3 1
	snare4 1
	snare3 1
	EndLoop
	Loop 4
	snare1 1
	bass 1
	bass 1
	EndLoop
	snare1 1
	bass 1
	snare1 1
	bass 1
	Loop 4
	snare1 1
	bass 1
	bass 1
	EndLoop
	snare1 1
	speed 1
	snare3 5
	snare2 6
	speed 11
	snare1 1
	snare1 1
	Loop 3
	music_call Branch_f6b40
	EndLoop
	bass 2
	snare3 1
	bass 1
	snare1 2
	snare3 1
	bass 1
	snare3 1
	bass 1
	snare4 2
	snare1 1
	speed 1
	snare3 5
	snare2 6
	speed 11
	snare1 1
	snare1 1
	Loop 7
	music_call Branch_f6b40
	EndLoop
	bass 2
	snare3 1
	bass 1
	snare1 2
	snare3 1
	bass 1
	snare3 1
	bass 1
	snare4 2
	snare1 1
	speed 1
	snare3 5
	snare2 6
	speed 11
	snare1 1
	snare1 1
	music_call Branch_f6b7e
	speed 1
	snare3 5
	snare2 6
	speed 11
	snare1 1
	bass 1
	music_call Branch_f6b7e
	speed 1
	snare3 5
	snare2 6
	speed 11
	snare1 2
	Loop 7
	music_call Branch_f6b40
	EndLoop
	bass 2
	snare3 1
	bass 1
	snare1 2
	snare3 1
	bass 1
	snare3 1
	bass 1
	snare4 2
	snare1 1
	speed 1
	snare3 5
	snare2 6
	snare1 5
	snare1 6
	snare1 5
	snare1 6
	speed 11
	music_call Branch_f6b4d
	snare3 1
	snare1 1
	bass 1
	music_call Branch_f6b4d
	speed 1
	snare3 5
	snare2 6
	speed 11
	snare1 1
	bass 1
	music_call Branch_f6b4d
	snare3 1
	snare1 1
	bass 1
	music_call Branch_f6b4d
	speed 1
	snare3 5
	snare2 6
	speed 11
	snare1 2
	snare5 8
	rest 4
	speed 1
	snare2 3
	snare2 2
	snare1 6
	snare1 5
	snare1 6
	snare1 5
	snare1 6
	speed 11
	snare1 1
	Loop 7
	music_call Branch_f6b65
	speed 1
	bass 6
	EndLoop
	music_call Branch_f6b65
	speed 1
	snare1 6
	Loop 15
	music_call Branch_f6b65
	speed 1
	bass 6
	EndLoop
	speed 11
	bass 1
	speed 1
	snare3 5
	bass 6
	speed 11
	snare1 1
	speed 1
	snare3 5
	snare4 6
	snare3 5
	snare2 6
	snare3 5
	bass 6
	snare1 5
	snare1 6
	snare1 5
	snare1 6
	music_call Branch_f6b9a
	bass 1
	speed 1
	snare3 5
	snare2 6
	snare1 5
	snare1 6
	snare1 5
	snare1 6
	music_call Branch_f6b9a
	speed 1
	bass 5
	snare2 6
	snare1 5
	snare1 6
	snare1 5
	snare1 6
	snare1 5
	snare1 6
	speed 11
	EndMainLoop

Branch_f6b40:
	bass 2
	snare3 1
	bass 1
	snare1 2
	snare3 1
	bass 1
	snare3 1
	bass 1
	snare4 2
	snare1 2
	snare3 1
	snare1 1
	music_ret

Branch_f6b4d:
	bass 1
	snare1 1
	snare3 1
	bass 1
	snare1 1
	snare4 1
	bass 1
	snare1 1
	snare3 1
	bass 1
	snare1 1
	snare4 1
	bass 1
	snare1 1
	snare3 1
	bass 1
	snare1 1
	snare4 1
	bass 1
	snare1 1
	snare3 1
	bass 1
	snare1 1
	music_ret

Branch_f6b65:
	speed 11
	bass 1
	speed 1
	snare3 5
	bass 6
	speed 11
	snare1 1
	speed 1
	snare3 5
	snare4 6
	snare3 5
	snare2 6
	snare3 5
	bass 6
	speed 11
	snare1 1
	speed 1
	snare3 5
	music_ret

Branch_f6b7e:
	bass 2
	snare3 1
	snare1 1
	snare3 1
	snare4 1
	snare1 1
	bass 1
	snare1 1
	snare4 1
	bass 1
	snare1 1
	snare1 1
	bass 1
	snare1 1
	bass 1
	bass 2
	snare3 1
	snare1 1
	snare3 1
	snare4 1
	snare1 1
	bass 1
	snare1 1
	snare4 1
	bass 1
	snare1 1
	snare1 1
	music_ret

Branch_f6b9a:
	speed 11
	Loop 3
	Loop 5
	bass 1
	speed 1
	snare3 5
	snare2 6
	speed 11
	snare1 1
	EndLoop
	bass 1
	EndLoop
	Loop 4
	bass 1
	speed 1
	snare3 5
	snare2 6
	speed 11
	snare1 1
	EndLoop
	music_ret
