Music_MatchStart3_Ch1: ; f7a0f (3d:7a0f)
	speed 1
	stereo_panning 1, 1
	cutoff 8
	octave 2
	volume 240
	duty 1
	C_ 1
	E_ 1
	G_ 1
	B_ 1
	D_ 1
	F_ 1
	A_ 1
	E_ 1
	G_ 1
	B_ 1
	octave 3
	C_ 1
	E_ 1
	G_ 1
	B_ 1
	D_ 1
	F_ 1
	A_ 1
	E_ 1
	G_ 1
	B_ 1
	octave 4
	C_ 1
	E_ 1
	G_ 1
	B_ 1
	D_ 1
	F_ 1
	A_ 1
	E_ 1
	G_ 1
	B_ 1
	octave 5
	C_ 1
	E_ 1
	G_ 1
	B_ 1
	octave 2
	duty 3
	D_ 1
	F_ 1
	A_ 1
	inc_octave
	C_ 1
	dec_octave
	E_ 1
	G_ 1
	B_ 1
	F_ 1
	A_ 1
	inc_octave
	C_ 1
	octave 3
	D_ 1
	F_ 1
	A_ 1
	inc_octave
	C_ 1
	dec_octave
	E_ 1
	G_ 1
	B_ 1
	F_ 1
	A_ 1
	inc_octave
	C_ 1
	octave 4
	D_ 1
	F_ 1
	A_ 1
	inc_octave
	C_ 1
	dec_octave
	E_ 1
	G_ 1
	B_ 1
	F_ 1
	A_ 1
	inc_octave
	C_ 1
	octave 5
	D_ 1
	F_ 1
	A_ 1
	inc_octave
	C_ 1
	octave 2
	duty 1
	E_ 1
	G_ 1
	B_ 1
	inc_octave
	D_ 1
	dec_octave
	F_ 1
	A_ 1
	inc_octave
	C_ 1
	dec_octave
	G_ 1
	B_ 1
	inc_octave
	D_ 1
	octave 3
	E_ 1
	G_ 1
	B_ 1
	inc_octave
	D_ 1
	dec_octave
	F_ 1
	A_ 1
	inc_octave
	C_ 1
	dec_octave
	G_ 1
	B_ 1
	inc_octave
	D_ 1
	octave 4
	E_ 1
	G_ 1
	B_ 1
	inc_octave
	D_ 1
	dec_octave
	F_ 1
	A_ 1
	inc_octave
	C_ 1
	dec_octave
	G_ 1
	B_ 1
	inc_octave
	D_ 1
	octave 5
	E_ 1
	G_ 1
	B_ 1
	inc_octave
	D_ 1
	dec_octave
	octave 4
	volume 96
	F_ 1
	A_ 1
	inc_octave
	C_ 1
	dec_octave
	octave 5
	volume 32
	G_ 1
	B_ 1
	inc_octave
	D_ 1
	music_end


Music_MatchStart3_Ch2: ; f7aba (3d:7aba)
	speed 1
	stereo_panning 1, 1
	cutoff 8
	frequency_offset 6
	rest 4
	octave 2
	volume 96
	duty 1
	C_ 1
	E_ 1
	G_ 1
	B_ 1
	D_ 1
	F_ 1
	A_ 1
	E_ 1
	G_ 1
	B_ 1
	octave 3
	C_ 1
	E_ 1
	G_ 1
	B_ 1
	D_ 1
	F_ 1
	A_ 1
	E_ 1
	G_ 1
	B_ 1
	octave 4
	C_ 1
	E_ 1
	G_ 1
	B_ 1
	D_ 1
	F_ 1
	A_ 1
	E_ 1
	G_ 1
	B_ 1
	octave 5
	C_ 1
	E_ 1
	G_ 1
	B_ 1
	octave 2
	duty 3
	D_ 1
	F_ 1
	A_ 1
	inc_octave
	C_ 1
	dec_octave
	E_ 1
	G_ 1
	B_ 1
	F_ 1
	A_ 1
	inc_octave
	C_ 1
	octave 3
	D_ 1
	F_ 1
	A_ 1
	inc_octave
	C_ 1
	dec_octave
	E_ 1
	G_ 1
	B_ 1
	F_ 1
	A_ 1
	inc_octave
	C_ 1
	octave 4
	D_ 1
	F_ 1
	A_ 1
	inc_octave
	C_ 1
	dec_octave
	E_ 1
	G_ 1
	B_ 1
	F_ 1
	A_ 1
	inc_octave
	C_ 1
	octave 5
	D_ 1
	F_ 1
	A_ 1
	inc_octave
	C_ 1
	octave 2
	duty 1
	E_ 1
	G_ 1
	B_ 1
	inc_octave
	D_ 1
	dec_octave
	F_ 1
	A_ 1
	inc_octave
	C_ 1
	dec_octave
	G_ 1
	B_ 1
	inc_octave
	D_ 1
	octave 3
	E_ 1
	G_ 1
	B_ 1
	inc_octave
	D_ 1
	dec_octave
	F_ 1
	A_ 1
	inc_octave
	C_ 1
	dec_octave
	G_ 1
	B_ 1
	inc_octave
	D_ 1
	octave 4
	E_ 1
	G_ 1
	B_ 1
	inc_octave
	D_ 1
	dec_octave
	F_ 1
	A_ 1
	inc_octave
	C_ 1
	dec_octave
	G_ 1
	B_ 1
	inc_octave
	D_ 1
	octave 5
	E_ 1
	G_ 1
	B_ 1
	inc_octave
	D_ 1
	dec_octave
	octave 4
	volume 32
	F_ 1
	A_ 1
	inc_octave
	C_ 1
	dec_octave
	music_end
; 0xf7b61
