Music_MatchDraw_Ch1: ; f7cdf (3d:7cdf)
	speed 3
	stereo_panning 1, 1
	cutoff 8
	octave 4
	duty 1
	volume 176
	C_ 4
	dec_octave
	B_ 2
	A# 2
	A_ 2
	G# 2
	G_ 2
	F# 2
	F_ 4
	E_ 2
	D# 2
	D_ 2
	C# 2
	C_ 2
	dec_octave
	B_ 2
	A# 4
	B_ 2
	volume 39
	B_ 2
	volume 176
	F# 4
	G_ 2
	volume 39
	G_ 2
	volume 176
	C_ 2
	volume 39
	C_ 4
	inc_octave
	volume 176
	E_ 1
	G_ 1
	inc_octave
	C_ 2
	volume 39
	C_ 2
	music_end


Music_MatchDraw_Ch2: ; f7d17 (3d:7d17)
	speed 3
	stereo_panning 1, 1
	cutoff 8
	octave 3
	duty 1
	volume 176
	rest 16
	C_ 4
	dec_octave
	B_ 2
	A# 2
	A_ 2
	G# 2
	G_ 2
	F# 2
	F_ 4
	F# 2
	volume 39
	F# 2
	volume 176
	C# 4
	D_ 2
	volume 39
	D_ 2
	dec_octave
	volume 176
	G_ 2
	volume 39
	G_ 6
	inc_octave
	inc_octave
	volume 176
	E_ 2
	volume 39
	E_ 2
	music_end


Music_MatchDraw_Ch3: ; f7d47 (3d:7d47)
	speed 6
	stereo_panning 1, 1
	wave 1
	volume 32
	cutoff 8
	echo 0
	octave 1
	rest 16
	G_ 2
	F# 1
	rest 1
	D# 2
	C# 1
	rest 1
	C_ 1
	rest 3
	inc_octave
	C_ 1
	music_end
; 0xf7d60
