Music_MatchVictory_Ch1:
	stereo_panning TRUE, TRUE
	vibrato_type 1
	vibrato_delay 20
	cutoff 8
	octave 3
	duty 0
	volume_envelope 11, 0
	speed 1
	A_ 15
	tie
	A_ 9
	volume_envelope 2, 7
	A_ 5
	volume_envelope 11, 0
	A_ 7
	volume_envelope 2, 7
	A_ 3
	volume_envelope 11, 0
	F_ 7
	volume_envelope 2, 7
	F_ 3
	volume_envelope 11, 0
	A_ 7
	volume_envelope 2, 7
	A_ 2
	volume_envelope 11, 0
	B_ 11
	volume_envelope 2, 7
	B_ 10
	inc_octave
	volume_envelope 11, 0
	C_ 10
	volume_envelope 2, 7
	C_ 11
	volume_envelope 11, 0
	D_ 10
	volume_envelope 2, 7
	D_ 10
	volume_envelope 11, 0
	C# 8
	volume_envelope 2, 7
	C# 13
	volume_envelope 11, 0
	D_ 5
	volume_envelope 2, 7
	D_ 6
	volume_envelope 11, 0
	speed 8
	E_ 12
	volume_envelope 2, 7
	E_ 4
	music_end


Music_MatchVictory_Ch2:
	stereo_panning TRUE, TRUE
	vibrato_type 1
	vibrato_delay 20
	cutoff 8
	octave 3
	duty 0
	volume_envelope 11, 0
	speed 1
	F_ 5
	volume_envelope 2, 7
	F_ 5
	dec_octave
	volume_envelope 11, 0
	A_ 5
	inc_octave
	C_ 5
	F_ 5
	volume_envelope 2, 7
	F_ 4
	volume_envelope 11, 0
	C_ 7
	volume_envelope 2, 7
	C_ 3
	dec_octave
	volume_envelope 11, 0
	A_ 7
	volume_envelope 2, 7
	A_ 3
	inc_octave
	volume_envelope 11, 0
	C_ 7
	volume_envelope 2, 7
	C_ 2
	volume_envelope 11, 0
	G_ 11
	volume_envelope 2, 7
	G_ 10
	volume_envelope 11, 0
	A_ 10
	volume_envelope 2, 7
	A_ 11
	volume_envelope 11, 0
	B_ 10
	volume_envelope 2, 7
	B_ 10
	volume_envelope 11, 0
	A_ 8
	volume_envelope 2, 7
	A_ 13
	volume_envelope 11, 0
	B_ 5
	volume_envelope 2, 7
	B_ 6
	inc_octave
	volume_envelope 11, 0
	speed 8
	C# 12
	volume_envelope 2, 7
	C# 4
	music_end


Music_MatchVictory_Ch3:
	stereo_panning TRUE, TRUE
	wave 1
	volume_envelope 2, 0
	cutoff 8
	echo 0
	octave 1
	speed 1
	F_ 15
	tie
	F_ 9
	rest 5
	F_ 7
	rest 3
	F_ 7
	rest 3
	F_ 7
	rest 2
	G_ 11
	rest 10
	G_ 11
	rest 10
	G_ 10
	rest 10
	A_ 8
	rest 13
	E_ 5
	rest 6
	speed 8
	A_ 12
	music_end
