Music_MatchLoss_Ch1:
	stereo_panning TRUE, TRUE
	vibrato_type 1
	vibrato_delay 20
	cutoff 8
	octave 4
	duty 2
	volume_envelope 11, 0
	speed 1
	E_ 3
	F_ 2
	tie
	speed 5
	F_ 3
	C_ 1
	volume_envelope 3, 7
	C_ 3
	dec_octave
	volume_envelope 10, 0
	A# 1
	volume_envelope 3, 7
	A# 3
	inc_octave
	speed 1
	volume_envelope 10, 0
	D_ 3
	D# 2
	tie
	D# 16
	dec_octave
	A# 6
	volume_envelope 3, 7
	A# 16
	volume_envelope 10, 0
	G# 6
	volume_envelope 3, 7
	G# 16
	inc_octave
	volume_envelope 10, 0
	C_ 3
	C# 8
	tie
	C# 12
	dec_octave
	speed 6
	G# 1
	volume_envelope 3, 7
	G# 3
	volume_envelope 10, 0
	F# 1
	speed 7
	volume_envelope 3, 7
	F# 3
	speed 1
	volume_envelope 10, 0
	B_ 5
	inc_octave
	C_ 4
	tie
	speed 9
	C_ 11
	volume_envelope 3, 7
	C_ 2
	music_end


Music_MatchLoss_Ch2:
	stereo_panning TRUE, TRUE
	vibrato_type 5
	vibrato_delay 20
	cutoff 8
	octave 3
	duty 2
	volume_envelope 9, 0
	speed 9
	rest 9
	speed 11
	rest 5
	speed 1
	rest 8
	speed 9
	rest 6
	G_ 6
	tie
	G_ 6
	volume_envelope 3, 7
	G_ 2
	music_end


Music_MatchLoss_Ch3:
	stereo_panning TRUE, TRUE
	wave 1
	volume_envelope 2, 0
	cutoff 8
	echo 64
	octave 1
	speed 5
	A# 4
	inc_octave
	cutoff 4
	F_ 4
	A# 4
	dec_octave
	cutoff 8
	speed 7
	G# 3
	inc_octave
	cutoff 4
	speed 2
	D# 11
	G# 11
	dec_octave
	cutoff 8
	speed 1
	F# 11
	tie
	F# 12
	inc_octave
	cutoff 4
	speed 12
	C# 2
	speed 2
	F# 13
	dec_octave
	speed 9
	cutoff 8
	F_ 12
	music_end
