Music_Medal_Ch1: ; f7df8 (3d:7df8)
	stereo_panning 1, 1
	vibrato_type 1
	vibrato_delay 20
	cutoff 8
	octave 2
	duty 1
	volume 160
	speed 1
	E_ 5
	A_ 5
	inc_octave
	C# 5
	E_ 5
	A_ 5
	inc_octave
	C# 5
	dec_octave
	dec_octave
	A_ 5
	inc_octave
	C# 5
	E_ 5
	A_ 5
	inc_octave
	C# 5
	E_ 5
	speed 15
	A_ 2
	tie
	speed 1
	A_ 10
	volume 55
	A_ 5
	volume 160
	cutoff 7
	A_ 5
	A_ 5
	A_ 5
	cutoff 8
	A_ 15
	volume 55
	A_ 5
	volume 160
	A_ 16
	volume 55
	A_ 5
	volume 160
	A_ 16
	volume 55
	A_ 6
	volume 160
	speed 9
	A_ 5
	tie
	A_ 8
	tie
	speed 1
	A_ 2
	volume 55
	A_ 16
	music_end


Music_Medal_Ch2: ; f7e4b (3d:7e4b)
	stereo_panning 1, 1
	vibrato_type 1
	vibrato_delay 20
	cutoff 8
	octave 1
	duty 0
	volume 144
	speed 1
	A_ 5
	inc_octave
	C# 5
	E_ 5
	A_ 5
	inc_octave
	C# 5
	E_ 5
	dec_octave
	C# 5
	E_ 5
	A_ 5
	inc_octave
	C# 5
	E_ 5
	A_ 5
	inc_octave
	speed 15
	C_ 2
	tie
	speed 1
	C_ 10
	volume 39
	C_ 5
	volume 160
	cutoff 7
	C_ 5
	C_ 5
	C_ 5
	cutoff 8
	D_ 15
	volume 55
	D_ 5
	volume 144
	D_ 16
	volume 39
	D_ 5
	volume 144
	D_ 16
	volume 55
	D_ 6
	volume 144
	speed 9
	C# 5
	tie
	C# 8
	tie
	speed 1
	C# 2
	volume 39
	C# 16
	music_end


Music_Medal_Ch3: ; f7e9d (3d:7e9d)
	stereo_panning 1, 1
	wave 1
	volume 32
	cutoff 8
	echo 0
	octave 1
	speed 1
	speed 15
	rest 4
	F_ 2
	tie
	speed 1
	F_ 10
	rest 5
	cutoff 7
	F_ 5
	F_ 5
	F_ 5
	cutoff 8
	A# 15
	rest 5
	A# 16
	rest 5
	A# 16
	rest 6
	speed 9
	A_ 13
	tie
	speed 1
	A_ 2
	music_end
; 0xf7ec8
