Music_PokemonDome_Ch1: ; f9251 (3e:5251)
	speed 7
	stereo_panning 1, 1
	vibrato_type 9
	vibrato_delay 20
	cutoff 8
	octave 2
	duty 0
	volume 160
	speed 1
	G_ 5
	A_ 5
	B_ 4
	inc_octave
	C_ 5
	D_ 5
	E_ 4
	C_ 5
	D_ 5
	E_ 4
	F_ 5
	G_ 5
	A_ 4
	F_ 5
	G_ 5
	A_ 4
	B_ 5
	inc_octave
	C_ 5
	D_ 4
	dec_octave
	B_ 5
	inc_octave
	C_ 5
	D_ 4
	E_ 5
	F_ 5
	G_ 4
	duty 1
	volume 128
	dec_octave
	speed 1
	C_ 11
	volume 55
	C_ 3
	volume 128
	C_ 11
	volume 55
	C_ 10
	rest 7
	volume 128
	C_ 4
	volume 55
	C_ 3
	volume 128
	C_ 4
	volume 55
	C_ 3
	volume 128
	C_ 11
	volume 55
	C_ 3
	volume 128
	C_ 11
	volume 55
	C_ 10
	speed 7
	rest 3
	volume 128
	speed 1
	D_ 11
	volume 55
	D_ 3
	volume 128
	D_ 11
	volume 55
	D_ 10
	rest 7
	volume 128
	D_ 4
	volume 55
	D_ 3
	volume 128
	D_ 4
	volume 55
	D_ 3
	volume 128
	D_ 11
	volume 55
	D_ 3
	volume 128
	D_ 11
	volume 55
	D_ 3
	MainLoop
	speed 7
	duty 1
	volume 164
	octave 2
	G_ 4
	inc_octave
	duty 1
	volume 128
	speed 1
	E_ 11
	volume 55
	E_ 3
	volume 128
	speed 1
	E_ 11
	volume 55
	E_ 10
	rest 7
	volume 128
	E_ 4
	volume 55
	E_ 3
	volume 128
	E_ 4
	volume 55
	E_ 3
	volume 128
	E_ 11
	volume 55
	E_ 3
	volume 128
	E_ 11
	volume 55
	E_ 10
	speed 7
	rest 3
	volume 128
	speed 1
	D_ 11
	volume 55
	D_ 3
	volume 128
	D_ 11
	volume 55
	D_ 10
	rest 7
	speed 1
	volume 128
	D_ 4
	volume 55
	D_ 3
	volume 128
	D_ 4
	volume 55
	D_ 3
	volume 128
	D_ 11
	volume 55
	D_ 3
	volume 128
	D_ 11
	volume 55
	D_ 3
	duty 0
	volume 160
	dec_octave
	speed 1
	B_ 4
	inc_octave
	C_ 3
	D_ 4
	E_ 3
	F_ 4
	G_ 3
	A_ 4
	B_ 3
	speed 7
	inc_octave
	C_ 12
	dec_octave
	G_ 1
	volume 55
	G_ 1
	rest 1
	inc_octave
	volume 160
	C_ 1
	D_ 10
	volume 55
	D_ 2
	volume 160
	G_ 3
	volume 55
	G_ 1
	volume 160
	F_ 10
	volume 55
	F_ 2
	volume 160
	C_ 3
	volume 55
	C_ 1
	volume 160
	F_ 10
	E_ 1
	volume 55
	E_ 1
	volume 160
	D_ 3
	volume 55
	D_ 1
	volume 160
	E_ 12
	dec_octave
	G_ 1
	volume 55
	G_ 1
	rest 1
	inc_octave
	volume 160
	C_ 1
	D_ 8
	dec_octave
	A_ 4
	inc_octave
	D_ 3
	volume 55
	D_ 1
	volume 160
	C_ 14
	volume 55
	C_ 2
	dec_octave
	volume 160
	B_ 10
	volume 55
	B_ 2
	volume 160
	G_ 4
	A_ 12
	B_ 1
	volume 55
	B_ 2
	inc_octave
	volume 160
	C_ 1
	D_ 8
	E_ 4
	F_ 4
	G_ 8
	tie
	G_ 8
	tie
	G_ 8
	volume 55
	G_ 2
	volume 160
	F_ 2
	E_ 2
	volume 55
	E_ 1
	volume 160
	speed 1
	E_ 5
	volume 55
	E_ 2
	speed 7
	volume 160
	E_ 1
	volume 55
	E_ 1
	rest 1
	dec_octave
	volume 160
	A_ 1
	inc_octave
	C_ 8
	G_ 1
	volume 55
	G_ 2
	volume 160
	F_ 1
	E_ 1
	volume 55
	E_ 1
	rest 1
	dec_octave
	volume 160
	A_ 1
	inc_octave
	C_ 8
	G_ 1
	volume 55
	G_ 2
	volume 160
	F_ 1
	E_ 1
	volume 55
	E_ 1
	rest 1
	dec_octave
	volume 160
	G# 1
	inc_octave
	C_ 12
	tie
	C_ 8
	D_ 8
	C_ 8
	tie
	C_ 8
	tie
	C_ 12
	EndMainLoop


Music_PokemonDome_Ch2: ; f93f8 (3e:53f8)
	speed 7
	stereo_panning 1, 1
	vibrato_type 9
	vibrato_delay 20
	cutoff 8
	octave 1
	duty 0
	volume 128
	speed 1
	B_ 5
	inc_octave
	C_ 5
	D_ 4
	E_ 5
	F_ 5
	G_ 4
	E_ 5
	F_ 5
	G_ 4
	A_ 5
	B_ 5
	inc_octave
	C_ 4
	dec_octave
	A_ 5
	B_ 5
	inc_octave
	C_ 4
	D_ 5
	E_ 5
	F_ 4
	D_ 5
	E_ 5
	F_ 4
	G_ 5
	A_ 5
	B_ 4
	MainLoop
	duty 1
	volume 112
	octave 3
	speed 1
	E_ 11
	volume 55
	E_ 3
	volume 112
	E_ 11
	volume 55
	E_ 10
	rest 7
	volume 112
	E_ 4
	volume 55
	E_ 3
	volume 112
	E_ 4
	volume 55
	E_ 3
	volume 112
	E_ 11
	volume 55
	E_ 3
	volume 112
	E_ 11
	volume 55
	E_ 10
	speed 7
	rest 3
	music_call Branch_f9554
	speed 7
	rest 4
	volume 112
	speed 1
	G_ 11
	volume 55
	G_ 3
	volume 112
	G_ 11
	volume 55
	G_ 10
	rest 7
	volume 112
	G_ 4
	volume 55
	G_ 3
	volume 112
	G_ 4
	volume 55
	G_ 3
	volume 112
	G_ 11
	volume 55
	G_ 3
	volume 112
	G_ 11
	volume 55
	G_ 10
	speed 7
	rest 3
	music_call Branch_f9554
	duty 0
	volume 128
	dec_octave
	speed 1
	G_ 4
	A_ 3
	B_ 4
	inc_octave
	C_ 3
	D_ 4
	E_ 3
	F_ 4
	F# 3
	speed 7
	G_ 10
	F_ 1
	rest 1
	E_ 1
	volume 39
	E_ 1
	rest 1
	volume 112
	G_ 1
	G_ 10
	A_ 2
	B_ 2
	G_ 2
	inc_octave
	C_ 10
	rest 2
	dec_octave
	A_ 3
	rest 1
	G# 10
	A# 1
	rest 1
	G# 3
	rest 1
	G_ 8
	inc_octave
	C_ 4
	dec_octave
	E_ 4
	F# 8
	F# 4
	cutoff 6
	F# 3
	cutoff 8
	speed 1
	F# 5
	rest 2
	speed 7
	F_ 14
	rest 2
	dec_octave
	G_ 1
	A_ 1
	B_ 1
	inc_octave
	C_ 1
	D_ 1
	dec_octave
	B_ 1
	inc_octave
	C_ 1
	D_ 1
	E_ 1
	C_ 1
	D_ 1
	E_ 1
	F_ 1
	F_ 1
	A_ 1
	B_ 1
	duty 1
	volume 127
	speed 1
	Loop 4
	F_ 5
	C_ 5
	dec_octave
	A_ 4
	inc_octave
	C_ 5
	dec_octave
	A_ 5
	F_ 4
	inc_octave
	EndLoop
	Loop 4
	G# 5
	F_ 5
	C_ 4
	F_ 5
	C_ 5
	dec_octave
	G# 4
	inc_octave
	EndLoop
	Loop 4
	inc_octave
	D_ 5
	dec_octave
	B_ 5
	G_ 4
	B_ 5
	G_ 5
	D_ 4
	EndLoop
	Loop 3
	inc_octave
	C# 5
	dec_octave
	A# 5
	G_ 4
	A# 5
	G_ 5
	E_ 4
	EndLoop
	inc_octave
	C# 5
	dec_octave
	C# 5
	E_ 4
	G_ 5
	A# 5
	inc_octave
	C# 4
	duty 0
	volume 128
	speed 7
	Loop 2
	C_ 1
	volume 39
	C_ 1
	rest 1
	volume 112
	dec_octave
	F_ 1
	A_ 8
	inc_octave
	E_ 1
	volume 39
	E_ 1
	rest 1
	volume 112
	D_ 1
	EndLoop
	C_ 1
	volume 39
	C_ 1
	rest 1
	dec_octave
	volume 112
	F_ 1
	G# 12
	C_ 1
	dec_octave
	F_ 1
	G# 1
	inc_octave
	C_ 1
	F_ 1
	dec_octave
	G# 1
	inc_octave
	C_ 1
	F_ 1
	G# 1
	C_ 1
	F_ 1
	G# 1
	inc_octave
	C_ 1
	dec_octave
	F_ 1
	G# 1
	B_ 1
	EndMainLoop

Branch_f9554:
	speed 1
	volume 112
	F_ 11
	volume 55
	F_ 3
	volume 112
	F_ 11
	volume 55
	F_ 10
	rest 7
	volume 112
	F_ 4
	volume 55
	F_ 3
	volume 112
	F_ 4
	volume 55
	F_ 3
	Loop 2
	volume 112
	F_ 11
	volume 55
	F_ 3
	EndLoop
	music_ret


Music_PokemonDome_Ch3: ; f9579 (3e:5579)
	speed 7
	stereo_panning 1, 1
	volume 32
	wave 1
	echo 64
	cutoff 6
	octave 1
	cutoff 4
	speed 1
	Loop 8
	G_ 5
	G_ 5
	G_ 4
	EndLoop
	cutoff 6
	speed 7
	MainLoop
	inc_octave
	C_ 2
	C_ 2
	rest 2
	C_ 1
	C_ 1
	music_call Branch_f9613
	octave 1
	cutoff 4
	C_ 2
	inc_octave
	cutoff 6
	C_ 2
	rest 2
	C_ 1
	C_ 1
	music_call Branch_f9613
	octave 2
	C_ 2
	C_ 2
	rest 2
	C_ 1
	C_ 1
	C_ 2
	C_ 2
	rest 2
	dec_octave
	G_ 2
	B_ 2
	B_ 2
	rest 2
	B_ 1
	B_ 1
	B_ 2
	B_ 2
	rest 2
	G_ 2
	A_ 2
	A_ 2
	rest 2
	A_ 1
	A_ 1
	A_ 2
	A_ 2
	rest 2
	F_ 2
	G# 2
	G# 2
	rest 2
	G# 1
	G# 1
	G# 2
	G# 2
	rest 2
	F_ 2
	Loop 2
	G_ 2
	G_ 2
	rest 2
	G_ 1
	G_ 1
	EndLoop
	Loop 2
	F# 2
	F# 2
	rest 2
	F# 1
	F# 1
	EndLoop
	Loop 4
	G_ 2
	G_ 2
	rest 2
	G_ 1
	G_ 1
	EndLoop
	Loop 4
	F_ 2
	F_ 2
	rest 2
	F_ 1
	F_ 1
	EndLoop
	Loop 2
	E_ 2
	E_ 2
	rest 2
	E_ 1
	E_ 1
	EndLoop
	Loop 2
	A_ 2
	A_ 2
	rest 2
	A_ 1
	A_ 1
	EndLoop
	Loop 4
	D_ 2
	D_ 2
	rest 2
	D_ 1
	D_ 1
	EndLoop
	Loop 4
	G_ 2
	G_ 2
	rest 2
	G_ 1
	G_ 1
	EndLoop
	EndMainLoop

Branch_f9613:
	octave 2
	C_ 2
	C_ 2
	rest 2
	dec_octave
	G_ 2
	inc_octave
	C_ 2
	C_ 2
	rest 2
	C_ 1
	C_ 1
	C_ 2
	C_ 2
	dec_octave
	cutoff 4
	G_ 2
	cutoff 6
	G_ 2
	music_ret


Music_PokemonDome_Ch4: ; f9629 (3e:5629)
	speed 7
	octave 1
	snare5 8
	speed 1
	snare1 4
	snare2 3
	Loop 7
	snare2 4
	snare2 3
	EndLoop
	MainLoop
	Loop 2
	speed 7
	snare1 2
	snare1 2
	rest 2
	speed 1
	snare1 4
	snare2 3
	snare2 4
	snare2 3
	EndLoop
	EndMainLoop
; 0xf9646
